<svg width="1256" height="1205" viewBox="0 0 1256 1205" fill="none" xmlns="http://www.w3.org/2000/svg">
<g filter="url(#filter0_b_104_194)">
<rect x="1.5" y="21" width="610" height="131.385" rx="6.25641" fill="black" fill-opacity="0.4"/>
<rect x="2.28205" y="21.7821" width="608.436" height="129.821" rx="5.47436" stroke="#FFCC29" stroke-width="1.5641"/>
<path d="M51.8012 100.692H61.3698M56.5855 62.4178V60.0256M68.5463 67.2021L70.9384 64.8099M44.6247 67.2021L42.2326 64.8099M68.5463 88.7315L70.9384 91.1237M44.6247 88.7315L42.2326 91.1237M39.8404 76.7707H37.4482M75.7227 76.7707H73.3306M56.5855 68.3982C59.0143 68.3967 61.3722 69.2166 63.2761 70.7247C65.1799 72.2327 66.5179 74.3403 67.0724 76.7049C67.627 79.0696 67.3656 81.5522 66.3308 83.7495C65.2959 85.9468 63.5484 87.7296 61.3722 88.8081L61.3698 91.1237C61.3698 92.3925 60.8657 93.6095 59.9685 94.5067C59.0713 95.4039 57.8544 95.908 56.5855 95.908C55.3166 95.908 54.0997 95.4039 53.2025 94.5067C52.3052 93.6095 51.8012 92.3925 51.8012 91.1237V88.8081C49.6252 87.7296 47.8778 85.9471 46.8429 83.7501C45.808 81.553 45.5464 79.0706 46.1007 76.7061C46.6549 74.3416 47.9925 72.234 49.8959 70.7258C51.7994 69.2175 54.1569 68.3972 56.5855 68.3982Z" stroke="#FFCC29" stroke-width="1.5641" stroke-linecap="round" stroke-linejoin="round"/>
<path d="M105.243 72.7351H110.999V75.5129H101.74V58.045H105.243V72.7351ZM115.003 59.997C114.386 59.997 113.869 59.8052 113.451 59.4215C113.051 59.021 112.851 58.5289 112.851 57.9449C112.851 57.361 113.051 56.8772 113.451 56.4935C113.869 56.093 114.386 55.8928 115.003 55.8928C115.62 55.8928 116.129 56.093 116.53 56.4935C116.947 56.8772 117.155 57.361 117.155 57.9449C117.155 58.5289 116.947 59.021 116.53 59.4215C116.129 59.8052 115.62 59.997 115.003 59.997ZM116.73 61.6487V75.5129H113.226V61.6487H116.73ZM125.622 61.4235C126.656 61.4235 127.566 61.6321 128.35 62.0491C129.134 62.4496 129.751 62.9751 130.202 63.6258V61.6487H133.73V75.613C133.73 76.8977 133.472 78.0405 132.954 79.0416C132.437 80.0593 131.661 80.8601 130.627 81.444C129.593 82.0446 128.341 82.3449 126.873 82.3449C124.905 82.3449 123.286 81.8861 122.018 80.9685C120.767 80.0509 120.058 78.7996 119.891 77.2147H123.37C123.553 77.8487 123.945 78.3492 124.546 78.7162C125.163 79.0999 125.906 79.2918 126.773 79.2918C127.791 79.2918 128.617 78.9832 129.251 78.3659C129.885 77.7652 130.202 76.8476 130.202 75.613V73.4608C129.751 74.1115 129.126 74.6537 128.325 75.0875C127.541 75.5213 126.64 75.7382 125.622 75.7382C124.454 75.7382 123.386 75.4379 122.419 74.8372C121.451 74.2366 120.684 73.3941 120.116 72.3097C119.566 71.2085 119.29 69.9489 119.29 68.5308C119.29 67.1294 119.566 65.8864 120.116 64.802C120.684 63.7175 121.443 62.8833 122.394 62.2994C123.361 61.7155 124.437 61.4235 125.622 61.4235ZM130.202 68.5808C130.202 67.73 130.035 67.0042 129.701 66.4036C129.367 65.7863 128.917 65.3192 128.35 65.0022C127.782 64.6685 127.174 64.5017 126.523 64.5017C125.872 64.5017 125.272 64.6602 124.721 64.9771C124.17 65.2941 123.72 65.7613 123.37 66.3786C123.036 66.9792 122.869 67.6966 122.869 68.5308C122.869 69.365 123.036 70.0991 123.37 70.733C123.72 71.3503 124.17 71.8258 124.721 72.1595C125.288 72.4932 125.889 72.66 126.523 72.66C127.174 72.66 127.782 72.5015 128.35 72.1845C128.917 71.8509 129.367 71.3837 129.701 70.7831C130.035 70.1658 130.202 69.4317 130.202 68.5808ZM144.96 61.4485C146.011 61.4485 146.945 61.6821 147.763 62.1492C148.58 62.5997 149.214 63.2754 149.665 64.1763C150.132 65.0606 150.366 66.1283 150.366 67.3796V75.5129H146.862V67.8551C146.862 66.754 146.587 65.9114 146.036 65.3275C145.486 64.7269 144.735 64.4266 143.784 64.4266C142.816 64.4266 142.049 64.7269 141.482 65.3275C140.931 65.9114 140.656 66.754 140.656 67.8551V75.5129H137.152V56.994H140.656V63.3755C141.106 62.7749 141.707 62.3077 142.458 61.9741C143.208 61.6237 144.042 61.4485 144.96 61.4485ZM157.777 64.5267V71.2336C157.777 71.7007 157.885 72.0427 158.102 72.2596C158.335 72.4598 158.719 72.5599 159.253 72.5599H160.88V75.5129H158.677C155.724 75.5129 154.248 74.0781 154.248 71.2085V64.5267H152.596V61.6487H154.248V58.2202H157.777V61.6487H160.88V64.5267H157.777ZM179.273 66.5538C180.257 66.7373 181.066 67.2295 181.7 68.0303C182.334 68.8311 182.651 69.7487 182.651 70.7831C182.651 71.7174 182.418 72.5432 181.951 73.2606C181.5 73.9613 180.841 74.5119 179.974 74.9123C179.106 75.3127 178.08 75.5129 176.896 75.5129H169.363V58.045H176.57C177.755 58.045 178.772 58.2369 179.623 58.6206C180.491 59.0044 181.142 59.5382 181.575 60.2223C182.026 60.9063 182.251 61.6821 182.251 62.5497C182.251 63.5674 181.976 64.4182 181.425 65.1023C180.891 65.7863 180.174 66.2701 179.273 66.5538ZM172.866 65.2524H176.07C176.904 65.2524 177.546 65.0689 177.997 64.7019C178.447 64.3181 178.672 63.7759 178.672 63.0752C178.672 62.3745 178.447 61.8323 177.997 61.4485C177.546 61.0648 176.904 60.8729 176.07 60.8729H172.866V65.2524ZM176.395 72.66C177.246 72.66 177.905 72.4598 178.372 72.0594C178.856 71.659 179.098 71.0917 179.098 70.3577C179.098 69.6069 178.848 69.023 178.347 68.6059C177.847 68.1721 177.171 67.9552 176.32 67.9552H172.866V72.66H176.395ZM198.532 61.6487V75.5129H195.004V73.7611C194.553 74.3618 193.961 74.8372 193.227 75.1876C192.509 75.5213 191.725 75.6881 190.874 75.6881C189.79 75.6881 188.831 75.4629 187.996 75.0124C187.162 74.5453 186.503 73.8696 186.019 72.9853C185.552 72.0844 185.319 71.0167 185.319 69.7821V61.6487H188.822V69.2816C188.822 70.3827 189.097 71.2336 189.648 71.8342C190.199 72.4181 190.949 72.7101 191.9 72.7101C192.868 72.7101 193.627 72.4181 194.178 71.8342C194.728 71.2336 195.004 70.3827 195.004 69.2816V61.6487H198.532ZM205.493 56.994V75.5129H201.989V56.994H205.493ZM212.458 63.6758C212.908 63.0085 213.526 62.4662 214.31 62.0491C215.11 61.6321 216.02 61.4235 217.037 61.4235C218.222 61.4235 219.29 61.7155 220.241 62.2994C221.208 62.8833 221.967 63.7175 222.518 64.802C223.085 65.8697 223.369 67.1127 223.369 68.5308C223.369 69.9489 223.085 71.2085 222.518 72.3097C221.967 73.3941 221.208 74.2366 220.241 74.8372C219.29 75.4379 218.222 75.7382 217.037 75.7382C216.003 75.7382 215.094 75.538 214.31 75.1376C213.542 74.7205 212.925 74.1866 212.458 73.5359V75.5129H208.954V56.994H212.458V63.6758ZM219.79 68.5308C219.79 67.6966 219.615 66.9792 219.265 66.3786C218.931 65.7613 218.481 65.2941 217.913 64.9771C217.363 64.6602 216.762 64.5017 216.111 64.5017C215.478 64.5017 214.877 64.6685 214.31 65.0022C213.759 65.3192 213.309 65.7863 212.958 66.4036C212.625 67.0209 212.458 67.7466 212.458 68.5808C212.458 69.415 212.625 70.1408 212.958 70.7581C213.309 71.3754 213.759 71.8509 214.31 72.1845C214.877 72.5015 215.478 72.66 216.111 72.66C216.762 72.66 217.363 72.4932 217.913 72.1595C218.481 71.8258 218.931 71.3503 219.265 70.733C219.615 70.1157 219.79 69.3817 219.79 68.5308Z" fill="white"/>
<path d="M100.998 103.186V100.909H105.553V116.872H103.035V103.186H100.998ZM119.274 103.055H111.939V107.412C112.245 107.004 112.698 106.66 113.296 106.383C113.909 106.106 114.559 105.967 115.245 105.967C116.471 105.967 117.464 106.23 118.223 106.755C118.997 107.281 119.544 107.945 119.865 108.748C120.201 109.551 120.369 110.398 120.369 111.288C120.369 112.368 120.157 113.332 119.734 114.179C119.325 115.011 118.705 115.668 117.873 116.149C117.055 116.631 116.048 116.872 114.851 116.872C113.26 116.872 111.982 116.478 111.019 115.689C110.055 114.901 109.479 113.857 109.289 112.558H111.72C111.88 113.244 112.238 113.792 112.793 114.2C113.347 114.595 114.041 114.792 114.873 114.792C115.909 114.792 116.683 114.478 117.194 113.85C117.72 113.222 117.982 112.39 117.982 111.354C117.982 110.303 117.72 109.5 117.194 108.945C116.668 108.376 115.895 108.091 114.873 108.091C114.158 108.091 113.552 108.274 113.055 108.639C112.574 108.989 112.223 109.471 112.004 110.084H109.639V100.865H119.274V103.055ZM145.188 104.806L141.444 116.872H138.816L136.386 107.96L133.955 116.872H131.327L127.561 104.806H130.101L132.619 114.507L135.181 104.806H137.787L140.24 114.463L142.736 104.806H145.188Z" fill="white"/>
<rect x="405.795" y="50.2459" width="183.376" height="72.8931" stroke="white" stroke-opacity="0.06" stroke-width="1.5641"/>
<rect x="420.654" y="65.1049" width="43.1751" height="43.1751" rx="5.68094" fill="#F7F7F7"/>
<path d="M451.33 84.4202V89.4794H433.151V84.4202H451.33Z" fill="#B0AEAE"/>
<path d="M492.997 79.2127V75.5808H499.782V96.105H495.728V79.2127H492.997Z" fill="white"/>
<rect x="531.137" y="65.1049" width="43.1751" height="43.1751" rx="5.68094" fill="#FFCC29"/>
<path d="M560.322 88.3755H554.559V94.2914H550.534V88.3755H544.77V84.6552H550.534V78.7393H554.559V84.6552H560.322V88.3755Z" fill="#1E1E1E"/>
<path d="M605.244 37.5209C596.12 37.5209 588.723 30.1247 588.723 21.0001C588.723 11.8755 596.12 4.47925 605.244 4.47925C614.369 4.47925 621.765 11.8755 621.765 21.0001C621.765 30.1247 614.369 37.5209 605.244 37.5209ZM612.82 16.1824C613.13 15.8723 613.13 15.3677 612.82 15.0577L611.132 13.3713C610.822 13.0612 610.317 13.0612 610.007 13.3713L605.228 18.1509L600.448 13.3713C600.138 13.0612 599.633 13.0612 599.323 13.3713L597.636 15.0577C597.326 15.3677 597.326 15.8723 597.636 16.1824L602.417 20.9632L597.636 25.7416C597.326 26.0516 597.326 26.5562 597.636 26.8662L599.323 28.5539C599.633 28.864 600.138 28.864 600.448 28.5539L605.228 23.773L610.007 28.5539C610.317 28.864 610.822 28.864 611.132 28.5539L612.82 26.8662C613.13 26.5562 613.13 26.0516 612.82 25.7416L608.039 20.9632L612.82 16.1824Z" fill="#FFCC29"/>
</g>
<g filter="url(#filter1_b_104_194)">
<rect x="631.5" y="21" width="610" height="131.385" rx="6.25641" fill="black" fill-opacity="0.4"/>
<rect x="632.282" y="21.7821" width="608.436" height="129.821" rx="5.47436" stroke="#FFCC29" stroke-width="1.5641"/>
<path d="M668.29 80.2279H685.738V82.5037H676.635V84.021H696.359V82.5037H687.255V80.2279H704.703V57.4694H668.29V80.2279ZM669.807 58.9866H703.186V78.7106H669.807V58.9866Z" fill="#FFCC29"/>
<path d="M734.243 58.045V60.8729H729.588V75.5129H726.084V60.8729H721.429V58.045H734.243ZM749.687 68.2805C749.687 68.781 749.654 69.2315 749.587 69.6319H739.452C739.535 70.6329 739.885 71.4171 740.503 71.9843C741.12 72.5516 741.879 72.8352 742.78 72.8352C744.081 72.8352 745.007 72.2763 745.558 71.1585H749.337C748.936 72.4932 748.169 73.5943 747.034 74.4619C745.9 75.3127 744.507 75.7382 742.855 75.7382C741.52 75.7382 740.319 75.4462 739.251 74.8623C738.2 74.2617 737.375 73.4191 736.774 72.3347C736.19 71.2502 735.898 69.999 735.898 68.5808C735.898 67.146 736.19 65.8864 736.774 64.802C737.358 63.7175 738.175 62.8833 739.226 62.2994C740.278 61.7155 741.487 61.4235 742.855 61.4235C744.173 61.4235 745.349 61.7071 746.384 62.2744C747.435 62.8416 748.244 63.6508 748.811 64.7019C749.395 65.7363 749.687 66.9291 749.687 68.2805ZM746.058 67.2795C746.042 66.3786 745.716 65.6612 745.082 65.1273C744.448 64.5767 743.673 64.3015 742.755 64.3015C741.887 64.3015 741.153 64.5684 740.553 65.1023C739.969 65.6195 739.61 66.3452 739.477 67.2795H746.058ZM755.748 56.994V75.5129H752.244V56.994H755.748ZM772.098 68.2805C772.098 68.781 772.064 69.2315 771.998 69.6319H761.862C761.946 70.6329 762.296 71.4171 762.913 71.9843C763.531 72.5516 764.29 72.8352 765.191 72.8352C766.492 72.8352 767.418 72.2763 767.969 71.1585H771.747C771.347 72.4932 770.58 73.5943 769.445 74.4619C768.311 75.3127 766.917 75.7382 765.266 75.7382C763.931 75.7382 762.73 75.4462 761.662 74.8623C760.611 74.2617 759.785 73.4191 759.185 72.3347C758.601 71.2502 758.309 69.999 758.309 68.5808C758.309 67.146 758.601 65.8864 759.185 64.802C759.769 63.7175 760.586 62.8833 761.637 62.2994C762.688 61.7155 763.898 61.4235 765.266 61.4235C766.584 61.4235 767.76 61.7071 768.794 62.2744C769.845 62.8416 770.655 63.6508 771.222 64.7019C771.806 65.7363 772.098 66.9291 772.098 68.2805ZM768.469 67.2795C768.452 66.3786 768.127 65.6612 767.493 65.1273C766.859 64.5767 766.083 64.3015 765.166 64.3015C764.298 64.3015 763.564 64.5684 762.963 65.1023C762.38 65.6195 762.021 66.3452 761.887 67.2795H768.469ZM780.436 72.2846L783.94 61.6487H787.668L782.538 75.5129H778.284L773.179 61.6487H776.932L780.436 72.2846ZM791.413 59.997C790.796 59.997 790.279 59.8052 789.862 59.4215C789.461 59.021 789.261 58.5289 789.261 57.9449C789.261 57.361 789.461 56.8772 789.862 56.4935C790.279 56.093 790.796 55.8928 791.413 55.8928C792.03 55.8928 792.539 56.093 792.94 56.4935C793.357 56.8772 793.565 57.361 793.565 57.9449C793.565 58.5289 793.357 59.021 792.94 59.4215C792.539 59.8052 792.03 59.997 791.413 59.997ZM793.14 61.6487V75.5129H789.636V61.6487H793.14ZM801.907 75.7382C800.772 75.7382 799.755 75.538 798.854 75.1376C797.953 74.7205 797.235 74.1616 796.702 73.4608C796.184 72.7601 795.901 71.9843 795.851 71.1335H799.379C799.446 71.6673 799.705 72.1095 800.155 72.4598C800.622 72.8102 801.198 72.9853 801.882 72.9853C802.549 72.9853 803.066 72.8519 803.433 72.5849C803.817 72.318 804.009 71.976 804.009 71.5589C804.009 71.1084 803.775 70.7748 803.308 70.5579C802.858 70.3243 802.132 70.074 801.131 69.8071C800.097 69.5568 799.246 69.2982 798.578 69.0313C797.928 68.7644 797.361 68.3556 796.877 67.805C796.41 67.2545 796.176 66.5121 796.176 65.5778C796.176 64.8103 796.393 64.1096 796.827 63.4756C797.277 62.8416 797.911 62.3411 798.729 61.9741C799.563 61.607 800.539 61.4235 801.657 61.4235C803.308 61.4235 804.626 61.8406 805.611 62.6748C806.595 63.4923 807.137 64.6018 807.237 66.0032H803.884C803.834 65.4526 803.6 65.0189 803.183 64.7019C802.783 64.3682 802.241 64.2013 801.557 64.2013C800.923 64.2013 800.43 64.3181 800.08 64.5517C799.746 64.7853 799.579 65.1106 799.579 65.5277C799.579 65.9949 799.813 66.3536 800.28 66.6038C800.747 66.8374 801.473 67.0793 802.457 67.3296C803.458 67.5798 804.284 67.8384 804.935 68.1053C805.586 68.3723 806.145 68.7894 806.612 69.3566C807.096 69.9072 807.346 70.6413 807.362 71.5589C807.362 72.3597 807.137 73.0771 806.687 73.7111C806.253 74.3451 805.619 74.8456 804.785 75.2126C803.967 75.563 803.008 75.7382 801.907 75.7382ZM812.015 59.997C811.398 59.997 810.881 59.8052 810.464 59.4215C810.063 59.021 809.863 58.5289 809.863 57.9449C809.863 57.361 810.063 56.8772 810.464 56.4935C810.881 56.093 811.398 55.8928 812.015 55.8928C812.633 55.8928 813.141 56.093 813.542 56.4935C813.959 56.8772 814.167 57.361 814.167 57.9449C814.167 58.5289 813.959 59.021 813.542 59.4215C813.141 59.8052 812.633 59.997 812.015 59.997ZM813.742 61.6487V75.5129H810.238V61.6487H813.742ZM823.36 75.7382C822.025 75.7382 820.824 75.4462 819.756 74.8623C818.688 74.2617 817.846 73.4191 817.229 72.3347C816.628 71.2502 816.328 69.999 816.328 68.5808C816.328 67.1627 816.636 65.9114 817.254 64.827C817.888 63.7425 818.747 62.9084 819.831 62.3244C820.916 61.7238 822.125 61.4235 823.46 61.4235C824.795 61.4235 826.004 61.7238 827.089 62.3244C828.173 62.9084 829.024 63.7425 829.641 64.827C830.275 65.9114 830.592 67.1627 830.592 68.5808C830.592 69.999 830.267 71.2502 829.616 72.3347C828.982 73.4191 828.115 74.2617 827.014 74.8623C825.929 75.4462 824.711 75.7382 823.36 75.7382ZM823.36 72.685C823.994 72.685 824.586 72.5349 825.137 72.2346C825.704 71.9176 826.154 71.4504 826.488 70.8331C826.822 70.2158 826.989 69.4651 826.989 68.5808C826.989 67.2628 826.638 66.2535 825.938 65.5527C825.254 64.8353 824.411 64.4766 823.41 64.4766C822.409 64.4766 821.566 64.8353 820.882 65.5527C820.215 66.2535 819.881 67.2628 819.881 68.5808C819.881 69.8989 820.207 70.9166 820.857 71.634C821.525 72.3347 822.359 72.685 823.36 72.685ZM840.845 61.4485C842.497 61.4485 843.832 61.9741 844.849 63.0251C845.867 64.0595 846.376 65.511 846.376 67.3796V75.5129H842.872V67.8551C842.872 66.754 842.597 65.9114 842.046 65.3275C841.496 64.7269 840.745 64.4266 839.794 64.4266C838.826 64.4266 838.059 64.7269 837.492 65.3275C836.941 65.9114 836.666 66.754 836.666 67.8551V75.5129H833.162V61.6487H836.666V63.3755C837.133 62.7749 837.725 62.3077 838.443 61.9741C839.177 61.6237 839.978 61.4485 840.845 61.4485Z" fill="white"/>
<path d="M730.526 104.609C730.366 103.938 730.074 103.434 729.65 103.098C729.227 102.763 728.636 102.595 727.877 102.595C726.723 102.595 725.862 103.04 725.293 103.931C724.723 104.806 724.424 106.266 724.395 108.31C724.775 107.668 725.329 107.171 726.059 106.821C726.789 106.471 727.577 106.295 728.424 106.295C729.388 106.295 730.234 106.507 730.964 106.931C731.709 107.339 732.285 107.938 732.694 108.726C733.117 109.514 733.329 110.456 733.329 111.551C733.329 112.573 733.125 113.485 732.716 114.288C732.322 115.091 731.731 115.726 730.942 116.193C730.154 116.646 729.205 116.872 728.096 116.872C726.592 116.872 725.41 116.543 724.548 115.887C723.702 115.215 723.103 114.273 722.753 113.062C722.417 111.85 722.249 110.339 722.249 108.529C722.249 103.186 724.132 100.515 727.899 100.515C729.358 100.515 730.504 100.909 731.337 101.697C732.183 102.485 732.68 103.456 732.826 104.609H730.526ZM727.877 108.398C726.986 108.398 726.227 108.668 725.599 109.208C724.986 109.733 724.68 110.5 724.68 111.507C724.68 112.514 724.964 113.317 725.534 113.916C726.118 114.5 726.928 114.792 727.964 114.792C728.884 114.792 729.607 114.507 730.132 113.938C730.672 113.368 730.942 112.609 730.942 111.66C730.942 110.668 730.68 109.879 730.154 109.295C729.643 108.697 728.884 108.398 727.877 108.398ZM735.992 108.682C735.992 106.157 736.415 104.186 737.262 102.77C738.123 101.339 739.598 100.624 741.685 100.624C743.773 100.624 745.24 101.339 746.087 102.77C746.948 104.186 747.379 106.157 747.379 108.682C747.379 111.237 746.948 113.237 746.087 114.682C745.24 116.113 743.773 116.828 741.685 116.828C739.598 116.828 738.123 116.113 737.262 114.682C736.415 113.237 735.992 111.237 735.992 108.682ZM744.926 108.682C744.926 107.5 744.846 106.5 744.685 105.682C744.539 104.865 744.233 104.201 743.766 103.69C743.298 103.164 742.605 102.901 741.685 102.901C740.766 102.901 740.072 103.164 739.605 103.69C739.138 104.201 738.824 104.865 738.663 105.682C738.517 106.5 738.444 107.5 738.444 108.682C738.444 109.909 738.517 110.938 738.663 111.77C738.809 112.602 739.116 113.273 739.583 113.784C740.065 114.295 740.766 114.551 741.685 114.551C742.605 114.551 743.298 114.295 743.766 113.784C744.247 113.273 744.561 112.602 744.707 111.77C744.853 110.938 744.926 109.909 744.926 108.682ZM772.241 104.806L768.496 116.872H765.869L763.438 107.96L761.007 116.872H758.38L754.613 104.806H757.153L759.672 114.507L762.234 104.806H764.839L767.292 114.463L769.788 104.806H772.241Z" fill="white"/>
<rect x="1026.41" y="50.2459" width="183.376" height="72.8931" stroke="white" stroke-opacity="0.06" stroke-width="1.5641"/>
<rect x="1041.27" y="65.1049" width="43.1751" height="43.1751" rx="5.68094" fill="#F7F7F7"/>
<path d="M1071.95 84.4202V89.4794H1053.77V84.4202H1071.95Z" fill="#B0AEAE"/>
<path d="M1113.61 79.2126V75.5807H1120.4V96.1049H1116.34V79.2126H1113.61Z" fill="white"/>
<rect x="1151.75" y="65.1049" width="43.1751" height="43.1751" rx="5.68094" fill="#FFCC29"/>
<path d="M1180.94 88.3752H1175.17V94.2911H1171.15V88.3752H1165.39V84.6549H1171.15V78.739H1175.17V84.6549H1180.94V88.3752Z" fill="#1E1E1E"/>
<path d="M1235.24 37.5207C1226.12 37.5207 1218.72 30.1244 1218.72 20.9998C1218.72 11.8753 1226.12 4.479 1235.24 4.479C1244.37 4.479 1251.76 11.8753 1251.76 20.9998C1251.76 30.1244 1244.37 37.5207 1235.24 37.5207ZM1242.82 16.1821C1243.13 15.872 1243.13 15.3675 1242.82 15.0574L1241.13 13.371C1240.82 13.0609 1240.32 13.0609 1240.01 13.371L1235.23 18.1506L1230.45 13.371C1230.14 13.0609 1229.63 13.0609 1229.32 13.371L1227.63 15.0574C1227.32 15.3675 1227.32 15.872 1227.63 16.1821L1232.41 20.963L1227.63 25.7413C1227.32 26.0514 1227.32 26.5559 1227.63 26.866L1229.32 28.5537C1229.63 28.8638 1230.14 28.8638 1230.45 28.5537L1235.23 23.7728L1240.01 28.5537C1240.32 28.8638 1240.82 28.8638 1241.13 28.5537L1242.82 26.866C1243.13 26.5559 1243.13 26.0514 1242.82 25.7413L1238.04 20.963L1242.82 16.1821Z" fill="#FFCC29"/>
</g>
<g filter="url(#filter2_b_104_194)">
<rect x="1.5" y="240.385" width="610" height="131.385" rx="6.25641" fill="black" fill-opacity="0.4"/>
<rect x="2.28205" y="241.167" width="608.436" height="129.821" rx="5.47436" stroke="#FFCC29" stroke-width="1.5641"/>
<path d="M68.6556 289.454C69.4212 289.663 70.0243 289.872 70.5115 290.127V289.709C70.5115 284.188 67.4029 279.386 62.8096 276.973C62.7864 277.507 62.6704 278.156 62.4616 278.899C66.1038 281.033 68.5628 284.953 68.6556 289.454ZM61.9512 300.798C60.2113 301.703 58.2395 302.236 56.1284 302.236C53.9477 302.236 51.9062 301.68 50.1199 300.705C49.5864 301.262 49.0992 301.703 48.6584 302.004C50.8391 303.327 53.3909 304.092 56.1284 304.092C58.7962 304.092 61.3017 303.373 63.4359 302.097C62.972 301.796 62.4848 301.355 61.9512 300.798ZM49.3544 279.177C49.1456 278.435 49.0064 277.808 48.9368 277.252C44.6451 279.734 41.7452 284.374 41.7452 289.709V289.988C42.2324 289.756 42.8588 289.57 43.6011 289.384C43.7171 285.093 45.9674 281.358 49.3544 279.177Z" fill="#FFCC29"/>
<path d="M67.1952 303.211C66.0121 303.211 64.8289 302.909 63.7386 302.283C61.9523 301.262 59.3541 298.014 55.9903 292.609C52.6265 297.991 50.0282 301.262 48.2419 302.283C44.9245 304.208 40.656 303.049 38.7305 299.731C37.8025 298.13 37.5474 296.251 38.0345 294.442C38.5217 292.656 39.6584 291.148 41.2823 290.22C43.0222 289.222 46.966 288.596 53.0208 288.364H53.4616L53.2528 287.923C50.3762 282.518 48.9147 278.736 48.9147 276.718C48.9147 272.89 52.0465 269.759 55.8743 269.759C59.702 269.759 62.8339 272.89 62.8339 276.718C62.8339 278.713 61.3955 282.471 58.5421 287.853L58.3101 288.364L58.9365 288.387C64.9913 288.619 68.9583 289.245 70.675 290.243C73.9924 292.168 75.1523 296.437 73.2268 299.754C71.9509 301.981 69.6078 303.211 67.1952 303.211ZM55.9903 291.31L56.5702 292.261C59.8644 297.55 62.3931 300.729 64.0634 301.703C67.056 303.42 70.8838 302.399 72.6237 299.406C74.3404 296.414 73.3196 292.586 70.327 290.846C68.6567 289.872 64.6897 289.292 58.4957 289.06L57.127 288.967L57.6838 287.946C60.63 282.425 62.1147 278.644 62.1147 276.718C62.1147 273.262 59.3077 270.455 55.8511 270.455C52.3945 270.455 49.5874 273.262 49.5874 276.718C49.5874 278.667 51.0722 282.425 54.0184 287.946L54.5751 288.967L54.5983 289.013L53.4384 289.06C47.2676 289.269 43.2774 289.872 41.6071 290.846C40.1688 291.681 39.1249 293.027 38.6841 294.651C38.2433 296.275 38.4753 297.945 39.3105 299.406C41.0272 302.399 44.8781 303.42 47.8707 301.703C49.541 300.729 52.0697 297.55 55.3639 292.261L55.9903 291.31Z" fill="#FFCC29"/>
<path d="M52.1853 289.709C52.1853 290.755 52.6008 291.758 53.3404 292.498C54.08 293.237 55.0831 293.653 56.1291 293.653C57.175 293.653 58.1781 293.237 58.9177 292.498C59.6573 291.758 60.0728 290.755 60.0728 289.709C60.0728 288.663 59.6573 287.66 58.9177 286.92C58.1781 286.181 57.175 285.765 56.1291 285.765C55.0831 285.765 54.08 286.181 53.3404 286.92C52.6008 287.66 52.1853 288.663 52.1853 289.709Z" fill="#FFCC29"/>
<path d="M56.1288 294.001C53.7625 294.001 51.837 292.075 51.837 289.709C51.837 287.343 53.7625 285.417 56.1288 285.417C58.495 285.417 60.4205 287.343 60.4205 289.709C60.4205 292.075 58.495 294.001 56.1288 294.001ZM56.1288 286.113C54.1569 286.113 52.533 287.737 52.533 289.709C52.533 291.681 54.1569 293.305 56.1288 293.305C58.1007 293.305 59.7246 291.681 59.7246 289.709C59.7246 287.737 58.1007 286.113 56.1288 286.113Z" fill="#FFCC29"/>
<path d="M100.013 277.43V280.257H92.7307V284.737H98.3114V287.515H92.7307V294.897H89.2271V277.43H100.013ZM101.597 287.915C101.597 286.514 101.872 285.271 102.422 284.186C102.99 283.102 103.749 282.268 104.7 281.684C105.667 281.1 106.744 280.808 107.928 280.808C108.963 280.808 109.863 281.017 110.631 281.434C111.415 281.851 112.041 282.376 112.508 283.01V281.033H116.036V294.897H112.508V292.87C112.057 293.521 111.432 294.063 110.631 294.497C109.847 294.914 108.937 295.123 107.903 295.123C106.735 295.123 105.667 294.822 104.7 294.222C103.749 293.621 102.99 292.779 102.422 291.694C101.872 290.593 101.597 289.333 101.597 287.915ZM112.508 287.965C112.508 287.114 112.341 286.389 112.007 285.788C111.674 285.171 111.223 284.704 110.656 284.387C110.089 284.053 109.48 283.886 108.829 283.886C108.178 283.886 107.578 284.045 107.027 284.362C106.477 284.679 106.026 285.146 105.676 285.763C105.342 286.364 105.175 287.081 105.175 287.915C105.175 288.749 105.342 289.484 105.676 290.118C106.026 290.735 106.477 291.21 107.027 291.544C107.594 291.878 108.195 292.045 108.829 292.045C109.48 292.045 110.089 291.886 110.656 291.569C111.223 291.235 111.674 290.768 112.007 290.168C112.341 289.55 112.508 288.816 112.508 287.965ZM127.141 280.833C128.793 280.833 130.128 281.359 131.145 282.41C132.163 283.444 132.672 284.896 132.672 286.764V294.897H129.168V287.24C129.168 286.138 128.893 285.296 128.342 284.712C127.792 284.111 127.041 283.811 126.09 283.811C125.122 283.811 124.355 284.111 123.788 284.712C123.237 285.296 122.962 286.138 122.962 287.24V294.897H119.458V281.033H122.962V282.76C123.429 282.159 124.021 281.692 124.739 281.359C125.473 281.008 126.274 280.833 127.141 280.833Z" fill="white"/>
<path d="M91.5074 327.913C89.9891 327.154 89.23 325.957 89.23 324.322C89.23 323.534 89.4271 322.811 89.8213 322.154C90.2154 321.497 90.8066 320.979 91.5949 320.6C92.3833 320.206 93.3467 320.008 94.4854 320.008C95.6095 320.008 96.5657 320.206 97.354 320.6C98.1569 320.979 98.7554 321.497 99.1496 322.154C99.5437 322.811 99.7408 323.534 99.7408 324.322C99.7408 325.14 99.5291 325.862 99.1058 326.49C98.697 327.103 98.1496 327.578 97.4635 327.913C98.2956 328.22 98.9525 328.724 99.4342 329.424C99.916 330.11 100.157 330.921 100.157 331.855C100.157 332.804 99.916 333.643 99.4342 334.373C98.9525 335.103 98.281 335.665 97.4197 336.059C96.5584 336.453 95.5803 336.651 94.4854 336.651C93.3905 336.651 92.4124 336.453 91.5511 336.059C90.7044 335.665 90.0402 335.103 89.5585 334.373C89.0767 333.643 88.8359 332.804 88.8359 331.855C88.8359 330.906 89.0767 330.089 89.5585 329.402C90.0402 328.716 90.6898 328.22 91.5074 327.913ZM97.354 324.629C97.354 323.811 97.0985 323.184 96.5876 322.746C96.0766 322.308 95.3759 322.089 94.4854 322.089C93.6095 322.089 92.9161 322.308 92.4051 322.746C91.8942 323.184 91.6387 323.819 91.6387 324.651C91.6387 325.381 91.9015 325.979 92.427 326.446C92.9672 326.899 93.6533 327.125 94.4854 327.125C95.3175 327.125 96.0036 326.892 96.5438 326.424C97.0839 325.957 97.354 325.359 97.354 324.629ZM94.4854 329.008C93.5219 329.008 92.7336 329.249 92.1205 329.731C91.522 330.198 91.2227 330.877 91.2227 331.767C91.2227 332.599 91.5147 333.278 92.0986 333.804C92.6825 334.315 93.4781 334.57 94.4854 334.57C95.4781 334.57 96.2591 334.307 96.8284 333.782C97.4124 333.256 97.7043 332.585 97.7043 331.767C97.7043 330.891 97.4051 330.213 96.8065 329.731C96.2226 329.249 95.4489 329.008 94.4854 329.008ZM102.778 328.067C102.778 325.541 103.201 323.57 104.048 322.154C104.909 320.724 106.384 320.008 108.471 320.008C110.559 320.008 112.026 320.724 112.873 322.154C113.734 323.57 114.165 325.541 114.165 328.067C114.165 330.621 113.734 332.621 112.873 334.067C112.026 335.497 110.559 336.213 108.471 336.213C106.384 336.213 104.909 335.497 104.048 334.067C103.201 332.621 102.778 330.621 102.778 328.067ZM111.712 328.067C111.712 326.884 111.632 325.884 111.471 325.067C111.325 324.249 111.019 323.585 110.551 323.074C110.084 322.549 109.391 322.286 108.471 322.286C107.552 322.286 106.858 322.549 106.391 323.074C105.924 323.585 105.61 324.249 105.449 325.067C105.303 325.884 105.23 326.884 105.23 328.067C105.23 329.293 105.303 330.322 105.449 331.154C105.595 331.986 105.902 332.658 106.369 333.169C106.851 333.68 107.552 333.935 108.471 333.935C109.391 333.935 110.084 333.68 110.551 333.169C111.033 332.658 111.347 331.986 111.493 331.154C111.639 330.322 111.712 329.293 111.712 328.067ZM139.027 324.191L135.282 336.256H132.655L130.224 327.344L127.793 336.256H125.166L121.399 324.191H123.939L126.458 333.891L129.02 324.191H131.625L134.078 333.848L136.574 324.191H139.027Z" fill="white"/>
<rect x="393.282" y="269.63" width="183.376" height="72.8931" stroke="white" stroke-opacity="0.06" stroke-width="1.5641"/>
<rect x="408.141" y="284.489" width="43.1751" height="43.1751" rx="5.68094" fill="#F7F7F7"/>
<path d="M438.817 303.804V308.864H420.638V303.804H438.817Z" fill="#B0AEAE"/>
<path d="M480.483 298.597V294.965H487.268V315.49H483.214V298.597H480.483Z" fill="white"/>
<rect x="518.624" y="284.49" width="43.1751" height="43.1751" rx="5.68094" fill="#FFCC29"/>
<path d="M547.81 307.76H542.047V313.676H538.021V307.76H532.258V304.04H538.021V298.124H542.047V304.04H547.81V307.76Z" fill="#1E1E1E"/>
<path d="M605.243 256.905C596.119 256.905 588.723 249.509 588.723 240.385C588.723 231.26 596.119 223.864 605.243 223.864C614.368 223.864 621.764 231.26 621.764 240.385C621.764 249.509 614.368 256.905 605.243 256.905ZM612.819 235.567C613.129 235.257 613.129 234.752 612.819 234.442L611.131 232.756C610.821 232.446 610.317 232.446 610.007 232.756L605.227 237.535L600.447 232.756C600.137 232.446 599.633 232.446 599.323 232.756L597.635 234.442C597.325 234.752 597.325 235.257 597.635 235.567L602.416 240.348L597.635 245.126C597.325 245.436 597.325 245.941 597.635 246.251L599.323 247.938C599.633 248.249 600.137 248.249 600.447 247.938L605.227 243.158L610.007 247.938C610.317 248.249 610.821 248.249 611.131 247.938L612.819 246.251C613.129 245.941 613.129 245.436 612.819 245.126L608.038 240.348L612.819 235.567Z" fill="#FFCC29"/>
</g>
<g filter="url(#filter3_b_104_194)">
<rect x="631.5" y="240.385" width="610" height="131.385" rx="6.25641" fill="black" fill-opacity="0.4"/>
<rect x="632.282" y="241.167" width="608.436" height="129.821" rx="5.47436" stroke="#FFCC29" stroke-width="1.5641"/>
<path d="M682.744 300.64H689.382M678.098 275.748H694.029C695.887 275.748 696.817 275.748 697.527 276.11C698.151 276.428 698.659 276.935 698.977 277.56C699.339 278.27 699.339 279.199 699.339 281.058V290.351C699.339 292.21 699.339 293.139 698.977 293.849C698.659 294.474 698.151 294.982 697.527 295.3C696.817 295.661 695.887 295.661 694.029 295.661H678.098C676.239 295.661 675.31 295.661 674.6 295.3C673.975 294.982 673.467 294.474 673.149 293.849C672.787 293.139 672.787 292.21 672.787 290.351V281.058C672.787 279.199 672.787 278.27 673.149 277.56C673.467 276.935 673.975 276.428 674.6 276.11C675.31 275.748 676.239 275.748 678.098 275.748ZM673.765 305.618H698.362C699.784 305.618 700.496 305.618 700.924 305.319C701.298 305.057 701.548 304.653 701.615 304.201C701.691 303.684 701.373 303.048 700.737 301.776L699.881 300.065C699.082 298.466 698.682 297.667 698.086 297.083C697.559 296.567 696.924 296.174 696.226 295.934C695.437 295.661 694.544 295.661 692.757 295.661H679.37C677.583 295.661 676.689 295.661 675.9 295.934C675.203 296.174 674.567 296.567 674.04 297.083C673.444 297.667 673.044 298.466 672.245 300.065L671.39 301.776C670.754 303.048 670.435 303.684 670.512 304.201C670.579 304.653 670.828 305.057 671.202 305.319C671.631 305.618 672.342 305.618 673.765 305.618Z" stroke="#FFCC29" stroke-width="2.21263" stroke-linecap="round" stroke-linejoin="round"/>
<path d="M725.859 292.12H731.615V294.897H722.355V277.43H725.859V292.12ZM732.941 287.915C732.941 286.514 733.216 285.271 733.767 284.186C734.334 283.102 735.093 282.268 736.044 281.684C737.012 281.1 738.088 280.808 739.272 280.808C740.307 280.808 741.208 281.017 741.975 281.434C742.759 281.851 743.385 282.376 743.852 283.01V281.033H747.381V294.897H743.852V292.87C743.402 293.521 742.776 294.063 741.975 294.497C741.191 294.914 740.282 295.123 739.247 295.123C738.079 295.123 737.012 294.822 736.044 294.222C735.093 293.621 734.334 292.779 733.767 291.694C733.216 290.593 732.941 289.333 732.941 287.915ZM743.852 287.965C743.852 287.114 743.685 286.389 743.352 285.788C743.018 285.171 742.567 284.704 742 284.387C741.433 284.053 740.824 283.886 740.173 283.886C739.523 283.886 738.922 284.045 738.371 284.362C737.821 284.679 737.37 285.146 737.02 285.763C736.686 286.364 736.52 287.081 736.52 287.915C736.52 288.749 736.686 289.484 737.02 290.118C737.37 290.735 737.821 291.21 738.371 291.544C738.939 291.878 739.539 292.045 740.173 292.045C740.824 292.045 741.433 291.886 742 291.569C742.567 291.235 743.018 290.768 743.352 290.168C743.685 289.55 743.852 288.816 743.852 287.965ZM754.306 283.035C754.757 282.401 755.374 281.876 756.158 281.459C756.959 281.025 757.868 280.808 758.886 280.808C760.07 280.808 761.138 281.1 762.089 281.684C763.057 282.268 763.816 283.102 764.366 284.186C764.934 285.254 765.217 286.497 765.217 287.915C765.217 289.333 764.934 290.593 764.366 291.694C763.816 292.779 763.057 293.621 762.089 294.222C761.138 294.822 760.07 295.123 758.886 295.123C757.868 295.123 756.967 294.914 756.183 294.497C755.416 294.08 754.79 293.554 754.306 292.92V301.504H750.803V281.033H754.306V283.035ZM761.639 287.915C761.639 287.081 761.463 286.364 761.113 285.763C760.779 285.146 760.329 284.679 759.762 284.362C759.211 284.045 758.611 283.886 757.96 283.886C757.326 283.886 756.725 284.053 756.158 284.387C755.607 284.704 755.157 285.171 754.807 285.788C754.473 286.405 754.306 287.131 754.306 287.965C754.306 288.8 754.473 289.525 754.807 290.143C755.157 290.76 755.607 291.235 756.158 291.569C756.725 291.886 757.326 292.045 757.96 292.045C758.611 292.045 759.211 291.878 759.762 291.544C760.329 291.21 760.779 290.735 761.113 290.118C761.463 289.5 761.639 288.766 761.639 287.915ZM771.842 283.911V290.618C771.842 291.085 771.951 291.427 772.168 291.644C772.401 291.844 772.785 291.944 773.319 291.944H774.946V294.897H772.743C769.79 294.897 768.314 293.463 768.314 290.593V283.911H766.662V281.033H768.314V277.605H771.842V281.033H774.946V283.911H771.842ZM783.622 295.123C782.287 295.123 781.086 294.831 780.018 294.247C778.95 293.646 778.108 292.804 777.491 291.719C776.89 290.635 776.59 289.383 776.59 287.965C776.59 286.547 776.898 285.296 777.516 284.212C778.15 283.127 779.009 282.293 780.093 281.709C781.178 281.108 782.387 280.808 783.722 280.808C785.057 280.808 786.266 281.108 787.351 281.709C788.435 282.293 789.286 283.127 789.903 284.212C790.537 285.296 790.854 286.547 790.854 287.965C790.854 289.383 790.529 290.635 789.878 291.719C789.244 292.804 788.377 293.646 787.276 294.247C786.191 294.831 784.973 295.123 783.622 295.123ZM783.622 292.07C784.256 292.07 784.848 291.919 785.399 291.619C785.966 291.302 786.416 290.835 786.75 290.218C787.084 289.6 787.251 288.85 787.251 287.965C787.251 286.647 786.9 285.638 786.2 284.937C785.516 284.22 784.673 283.861 783.672 283.861C782.671 283.861 781.828 284.22 781.144 284.937C780.477 285.638 780.143 286.647 780.143 287.965C780.143 289.283 780.469 290.301 781.119 291.018C781.787 291.719 782.621 292.07 783.622 292.07ZM796.928 283.035C797.378 282.401 797.996 281.876 798.78 281.459C799.581 281.025 800.49 280.808 801.508 280.808C802.692 280.808 803.76 281.1 804.711 281.684C805.679 282.268 806.438 283.102 806.988 284.186C807.555 285.254 807.839 286.497 807.839 287.915C807.839 289.333 807.555 290.593 806.988 291.694C806.438 292.779 805.679 293.621 804.711 294.222C803.76 294.822 802.692 295.123 801.508 295.123C800.49 295.123 799.589 294.914 798.805 294.497C798.037 294.08 797.412 293.554 796.928 292.92V301.504H793.424V281.033H796.928V283.035ZM804.26 287.915C804.26 287.081 804.085 286.364 803.735 285.763C803.401 285.146 802.951 284.679 802.384 284.362C801.833 284.045 801.232 283.886 800.582 283.886C799.948 283.886 799.347 284.053 798.78 284.387C798.229 284.704 797.779 285.171 797.428 285.788C797.095 286.405 796.928 287.131 796.928 287.965C796.928 288.8 797.095 289.525 797.428 290.143C797.779 290.76 798.229 291.235 798.78 291.569C799.347 291.886 799.948 292.045 800.582 292.045C801.232 292.045 801.833 291.878 802.384 291.544C802.951 291.21 803.401 290.735 803.735 290.118C804.085 289.5 804.26 288.766 804.26 287.915Z" fill="white"/>
<path d="M732.059 322.22L725.972 336.256H723.453L729.607 322.483H721.505V320.359H732.059V322.22ZM744.487 322.439H737.152V326.797C737.458 326.388 737.911 326.045 738.509 325.767C739.123 325.49 739.772 325.351 740.458 325.351C741.685 325.351 742.677 325.614 743.436 326.14C744.21 326.665 744.758 327.329 745.079 328.132C745.414 328.935 745.582 329.782 745.582 330.673C745.582 331.753 745.371 332.716 744.947 333.563C744.539 334.395 743.918 335.052 743.086 335.534C742.269 336.015 741.261 336.256 740.064 336.256C738.473 336.256 737.196 335.862 736.232 335.074C735.269 334.286 734.692 333.242 734.502 331.943H736.933C737.093 332.629 737.451 333.176 738.006 333.585C738.561 333.979 739.254 334.176 740.086 334.176C741.123 334.176 741.896 333.862 742.407 333.235C742.933 332.607 743.196 331.775 743.196 330.738C743.196 329.687 742.933 328.884 742.407 328.329C741.882 327.76 741.108 327.475 740.086 327.475C739.371 327.475 738.765 327.658 738.269 328.023C737.787 328.373 737.436 328.855 737.218 329.468H734.853V320.249H744.487V322.439ZM770.402 324.191L766.657 336.256H764.03L761.599 327.344L759.168 336.256H756.541L752.774 324.191H755.314L757.833 333.891L760.395 324.191H763L765.453 333.848L767.949 324.191H770.402Z" fill="white"/>
<rect x="1026.41" y="269.63" width="183.376" height="72.8931" stroke="white" stroke-opacity="0.06" stroke-width="1.5641"/>
<rect x="1041.27" y="284.49" width="43.1751" height="43.1751" rx="5.68094" fill="#F7F7F7"/>
<path d="M1071.95 303.805V308.864H1053.77V303.805H1071.95Z" fill="#B0AEAE"/>
<path d="M1113.61 298.597V294.965H1120.4V315.49H1116.34V298.597H1113.61Z" fill="white"/>
<rect x="1151.75" y="284.49" width="43.1751" height="43.1751" rx="5.68094" fill="#FFCC29"/>
<path d="M1180.94 307.76H1175.18V313.676H1171.15V307.76H1165.39V304.04H1171.15V298.124H1175.18V304.04H1180.94V307.76Z" fill="#1E1E1E"/>
<path d="M1235.25 256.905C1226.12 256.905 1218.72 249.509 1218.72 240.384C1218.72 231.26 1226.12 223.864 1235.25 223.864C1244.37 223.864 1251.77 231.26 1251.77 240.384C1251.77 249.509 1244.37 256.905 1235.25 256.905ZM1242.82 235.567C1243.13 235.257 1243.13 234.752 1242.82 234.442L1241.13 232.756C1240.82 232.445 1240.32 232.445 1240.01 232.756L1235.23 237.535L1230.45 232.756C1230.14 232.445 1229.63 232.445 1229.32 232.756L1227.64 234.442C1227.33 234.752 1227.33 235.257 1227.64 235.567L1232.42 240.348L1227.64 245.126C1227.33 245.436 1227.33 245.94 1227.64 246.251L1229.32 247.938C1229.63 248.248 1230.14 248.248 1230.45 247.938L1235.23 243.157L1240.01 247.938C1240.32 248.248 1240.82 248.248 1241.13 247.938L1242.82 246.251C1243.13 245.94 1243.13 245.436 1242.82 245.126L1238.04 240.348L1242.82 235.567Z" fill="#FFCC29"/>
</g>
<g filter="url(#filter4_b_104_194)">
<rect x="1.5" y="459.769" width="610" height="131.385" rx="6.25641" fill="black" fill-opacity="0.4"/>
<rect x="2.28205" y="460.551" width="608.436" height="129.821" rx="5.47436" stroke="#FFCC29" stroke-width="1.5641"/>
<path d="M59.7128 526.169C59.5695 526.024 59.3553 525.974 59.1642 526.041C57.9132 526.466 56.2889 526.691 54.4654 526.691C49.3396 526.691 43.8077 524.913 43.8077 522.041C43.8077 521.824 43.6778 521.631 43.4786 521.549C43.2794 521.467 43.0494 521.512 42.898 521.664C39.804 524.758 40.528 531.638 40.5609 531.931C40.5901 532.2 40.8191 532.404 41.0909 532.404H63.1594C63.1637 532.404 63.1683 532.404 63.1727 532.404C63.4682 532.404 63.7064 532.165 63.7064 531.871C63.7064 531.774 63.6804 531.682 63.6347 531.603C63.4591 531.076 62.6567 529.116 59.7128 526.169ZM41.5804 531.337C41.4893 529.94 41.3744 525.79 42.9755 523.269C44.1429 526.195 49.4426 527.759 54.4648 527.759C56.2547 527.759 57.8782 527.551 59.1859 527.154C61.0922 529.103 61.9739 530.552 62.3628 531.337L41.5804 531.337Z" fill="#FFCC29"/>
<path d="M65.381 504.715C65.1645 504.787 65.0168 504.991 65.0168 505.22C65.0168 505.259 65.0212 505.299 65.0258 505.299C65.0258 506.114 64.7743 506.903 64.3039 507.581C64.1824 507.759 64.1755 507.992 64.2927 508.173C66.8746 512.202 67.2045 515.82 65.1735 517.852C64.486 518.541 63.4753 518.889 62.1705 518.889C58.7339 518.889 54.2701 516.563 50.5224 512.817C45.2817 507.573 42.9296 500.727 45.4854 498.167C46.1729 497.48 47.1842 497.13 48.4905 497.13C51.462 497.13 54.0895 498.152 57.0103 500.442C57.1834 500.578 57.4178 500.594 57.6066 500.484C58.2396 500.12 58.9068 499.936 59.5899 499.936C59.6698 499.936 59.7482 499.948 59.8258 499.959L60.0058 499.981C60.0229 499.983 60.0408 499.983 60.0581 499.983C60.0648 499.983 60.0671 499.983 60.0671 499.983C60.3658 499.983 60.6046 499.745 60.6046 499.45C60.6046 499.254 60.5001 499.083 60.3441 498.991C56.4983 495.6 52.5094 493.881 48.4899 493.881C46.6738 493.881 44.8061 494.573 43.1864 495.868C42.3533 496.702 41.7748 497.764 41.4621 499.029C39.7072 501.861 38.7802 505.143 38.7802 508.528C38.7802 517.931 45.7876 525.579 54.4009 525.579C57.9217 525.579 61.2434 524.323 64.0209 521.947C65.4108 521.656 66.5707 521.055 67.4725 520.154C70.9615 516.663 70.3889 510.82 65.9767 504.903C65.8415 504.717 65.6019 504.643 65.381 504.715ZM66.7185 519.396C65.94 520.175 64.9173 520.688 63.6768 520.925C63.5856 520.942 63.4991 520.985 63.4275 521.046C60.8284 523.312 57.7055 524.512 54.4017 524.512C46.3775 524.512 39.8484 517.341 39.8484 508.527C39.8484 505.314 40.7353 502.2 42.4124 499.523C42.4437 499.473 42.4654 499.417 42.4795 499.362C42.7392 498.255 43.2318 497.331 43.8947 496.662C45.2629 495.572 46.9371 494.947 48.489 494.947C51.9033 494.947 55.3167 496.296 58.6494 498.959C58.2202 499.045 57.7993 499.187 57.3918 499.39C54.3792 497.09 51.6203 496.064 48.4884 496.064C46.8895 496.064 45.6243 496.517 44.7285 497.413C41.6659 500.478 43.9239 507.727 49.764 513.571C53.7045 517.51 58.4563 519.957 62.1682 519.957C63.7686 519.957 65.0323 519.503 65.9258 518.607C68.2845 516.248 68.0694 512.259 65.3727 507.89C65.6063 507.499 65.7848 507.083 65.9041 506.653C69.2602 511.713 69.596 516.519 66.7185 519.396Z" fill="#FFCC29"/>
<path d="M59.0103 515.718C59.9075 515.718 60.6367 514.987 60.6367 514.092V508.768C62.5363 508.507 64.0038 506.872 64.0038 504.901C64.0038 502.749 62.2542 500.999 60.103 500.999C58.1295 500.999 56.497 502.467 56.2357 504.368H51.0017C50.1052 504.368 49.3752 505.096 49.3752 505.993C49.3752 506.889 50.1052 507.618 51.0017 507.618H57.3217C57.3434 507.639 57.3651 507.661 57.3845 507.682V514.092C57.3837 514.988 58.1153 515.718 59.0103 515.718ZM51.0017 506.551C50.6934 506.551 50.4419 506.301 50.4419 505.993C50.4419 505.685 50.6934 505.434 51.0017 505.434H56.7321C57.0285 505.434 57.2673 505.196 57.2673 504.901C57.2673 503.338 58.54 502.065 60.103 502.065C61.6668 502.065 62.9372 503.338 62.9372 504.901C62.9372 506.464 61.6668 507.736 60.103 507.736C59.8081 507.736 59.5692 507.975 59.5692 508.27V514.092C59.5692 514.4 59.3177 514.65 59.0101 514.65C58.7026 514.65 58.4509 514.4 58.4509 514.092V507.448C58.4509 507.292 58.3852 507.147 58.2688 507.045C58.1583 506.949 58.0561 506.847 57.9606 506.737C57.8613 506.617 57.7113 506.55 57.5553 506.55H51.0017V506.551Z" fill="#FFCC29"/>
<path d="M68.0379 503.659H68.7485C68.7485 499.836 65.6372 496.723 61.8125 496.723V497.434C65.2455 497.433 68.0379 500.227 68.0379 503.659Z" fill="#FFCC29"/>
<path d="M61.8328 491.013V491.725C68.4043 491.725 73.7495 497.071 73.7495 503.642H74.4601C74.4601 496.678 68.7954 491.013 61.8328 491.013Z" fill="#FFCC29"/>
<path d="M100.025 496.814C101.861 496.814 103.47 497.173 104.855 497.89C106.257 498.608 107.333 499.634 108.084 500.969C108.851 502.287 109.235 503.822 109.235 505.573C109.235 507.325 108.851 508.86 108.084 510.178C107.333 511.479 106.257 512.489 104.855 513.206C103.47 513.924 101.861 514.282 100.025 514.282H93.919V496.814H100.025ZM99.9002 511.304C101.735 511.304 103.153 510.804 104.155 509.803C105.156 508.802 105.656 507.392 105.656 505.573C105.656 503.755 105.156 502.337 104.155 501.319C103.153 500.285 101.735 499.767 99.9002 499.767H97.4226V511.304H99.9002ZM117.889 514.457C116.671 514.457 115.569 514.249 114.585 513.832C113.617 513.415 112.85 512.814 112.283 512.03C111.716 511.246 111.424 510.32 111.407 509.252H115.161C115.211 509.969 115.461 510.537 115.911 510.954C116.379 511.371 117.013 511.579 117.813 511.579C118.631 511.579 119.273 511.388 119.74 511.004C120.208 510.603 120.441 510.086 120.441 509.452C120.441 508.935 120.283 508.51 119.966 508.176C119.649 507.842 119.248 507.584 118.764 507.4C118.297 507.2 117.647 506.983 116.812 506.75C115.678 506.416 114.752 506.09 114.035 505.774C113.334 505.44 112.725 504.948 112.208 504.297C111.707 503.63 111.457 502.745 111.457 501.644C111.457 500.61 111.716 499.709 112.233 498.942C112.75 498.174 113.476 497.59 114.41 497.19C115.344 496.773 116.412 496.564 117.613 496.564C119.415 496.564 120.875 497.006 121.993 497.89C123.127 498.758 123.753 499.976 123.87 501.544H120.016C119.982 500.944 119.724 500.451 119.24 500.068C118.773 499.667 118.147 499.467 117.363 499.467C116.679 499.467 116.128 499.642 115.711 499.993C115.311 500.343 115.111 500.852 115.111 501.519C115.111 501.986 115.261 502.378 115.561 502.695C115.878 502.996 116.262 503.246 116.712 503.446C117.179 503.63 117.83 503.847 118.664 504.097C119.799 504.43 120.725 504.764 121.442 505.098C122.16 505.431 122.777 505.932 123.294 506.599C123.811 507.267 124.07 508.143 124.07 509.227C124.07 510.161 123.828 511.029 123.344 511.83C122.86 512.631 122.151 513.273 121.217 513.757C120.283 514.224 119.173 514.457 117.889 514.457ZM138.995 496.814V499.642H134.34V514.282H130.836V499.642H126.181V496.814H138.995ZM157.242 496.814L150.835 514.282H146.581L140.174 496.814H143.928L148.733 510.704L153.513 496.814H157.242ZM168.727 490.583L161.97 518.812H158.542L165.299 490.583H168.727ZM177.619 496.814C179.455 496.814 181.065 497.173 182.449 497.89C183.851 498.608 184.927 499.634 185.678 500.969C186.445 502.287 186.829 503.822 186.829 505.573C186.829 507.325 186.445 508.86 185.678 510.178C184.927 511.479 183.851 512.489 182.449 513.206C181.065 513.924 179.455 514.282 177.619 514.282H171.513V496.814H177.619ZM177.494 511.304C179.33 511.304 180.748 510.804 181.749 509.803C182.75 508.802 183.25 507.392 183.25 505.573C183.25 503.755 182.75 502.337 181.749 501.319C180.748 500.285 179.33 499.767 177.494 499.767H175.017V511.304H177.494ZM202.34 507.05C202.34 507.55 202.306 508.001 202.24 508.401H192.104C192.188 509.402 192.538 510.186 193.155 510.754C193.773 511.321 194.532 511.604 195.433 511.604C196.734 511.604 197.66 511.046 198.21 509.928H201.989C201.589 511.262 200.821 512.364 199.687 513.231C198.552 514.082 197.159 514.507 195.508 514.507C194.173 514.507 192.972 514.215 191.904 513.632C190.853 513.031 190.027 512.188 189.426 511.104C188.843 510.02 188.551 508.768 188.551 507.35C188.551 505.915 188.843 504.656 189.426 503.571C190.01 502.487 190.828 501.653 191.879 501.069C192.93 500.485 194.14 500.193 195.508 500.193C196.826 500.193 198.002 500.476 199.036 501.044C200.087 501.611 200.897 502.42 201.464 503.471C202.048 504.506 202.34 505.698 202.34 507.05ZM198.711 506.049C198.694 505.148 198.369 504.43 197.735 503.897C197.101 503.346 196.325 503.071 195.408 503.071C194.54 503.071 193.806 503.338 193.205 503.872C192.621 504.389 192.263 505.114 192.129 506.049H198.711ZM203.996 507.35C203.996 505.915 204.288 504.664 204.872 503.596C205.456 502.512 206.265 501.678 207.299 501.094C208.334 500.493 209.518 500.193 210.853 500.193C212.572 500.193 213.99 500.627 215.107 501.494C216.242 502.345 217.001 503.546 217.385 505.098H213.606C213.406 504.497 213.064 504.03 212.58 503.696C212.113 503.346 211.529 503.171 210.828 503.171C209.827 503.171 209.035 503.538 208.451 504.272C207.867 504.989 207.575 506.015 207.575 507.35C207.575 508.668 207.867 509.694 208.451 510.428C209.035 511.146 209.827 511.504 210.828 511.504C212.246 511.504 213.172 510.87 213.606 509.602H217.385C217.001 511.104 216.242 512.297 215.107 513.181C213.973 514.065 212.555 514.507 210.853 514.507C209.518 514.507 208.334 514.215 207.299 513.632C206.265 513.031 205.456 512.197 204.872 511.129C204.288 510.045 203.996 508.785 203.996 507.35ZM226.108 514.507C224.773 514.507 223.572 514.215 222.504 513.632C221.436 513.031 220.594 512.188 219.977 511.104C219.376 510.02 219.076 508.768 219.076 507.35C219.076 505.932 219.384 504.681 220.002 503.596C220.636 502.512 221.495 501.678 222.579 501.094C223.664 500.493 224.873 500.193 226.208 500.193C227.543 500.193 228.752 500.493 229.837 501.094C230.921 501.678 231.772 502.512 232.389 503.596C233.023 504.681 233.34 505.932 233.34 507.35C233.34 508.768 233.015 510.02 232.364 511.104C231.73 512.188 230.863 513.031 229.762 513.632C228.677 514.215 227.459 514.507 226.108 514.507ZM226.108 511.454C226.742 511.454 227.334 511.304 227.885 511.004C228.452 510.687 228.902 510.22 229.236 509.602C229.57 508.985 229.737 508.234 229.737 507.35C229.737 506.032 229.386 505.023 228.685 504.322C228.001 503.605 227.159 503.246 226.158 503.246C225.157 503.246 224.314 503.605 223.63 504.322C222.963 505.023 222.629 506.032 222.629 507.35C222.629 508.668 222.955 509.686 223.605 510.403C224.273 511.104 225.107 511.454 226.108 511.454ZM235.009 507.3C235.009 505.899 235.285 504.656 235.835 503.571C236.402 502.487 237.17 501.653 238.138 501.069C239.105 500.485 240.181 500.193 241.366 500.193C242.267 500.193 243.126 500.393 243.943 500.793C244.761 501.177 245.412 501.694 245.895 502.345V495.763H249.449V514.282H245.895V512.23C245.462 512.914 244.853 513.465 244.069 513.882C243.284 514.299 242.375 514.507 241.341 514.507C240.173 514.507 239.105 514.207 238.138 513.607C237.17 513.006 236.402 512.163 235.835 511.079C235.285 509.978 235.009 508.718 235.009 507.3ZM245.92 507.35C245.92 506.499 245.754 505.774 245.42 505.173C245.086 504.556 244.636 504.088 244.069 503.771C243.501 503.438 242.892 503.271 242.242 503.271C241.591 503.271 240.99 503.429 240.44 503.746C239.889 504.063 239.439 504.531 239.088 505.148C238.755 505.748 238.588 506.466 238.588 507.3C238.588 508.134 238.755 508.868 239.088 509.502C239.439 510.12 239.889 510.595 240.44 510.929C241.007 511.262 241.608 511.429 242.242 511.429C242.892 511.429 243.501 511.271 244.069 510.954C244.636 510.62 245.086 510.153 245.42 509.552C245.754 508.935 245.92 508.201 245.92 507.35ZM265.759 507.05C265.759 507.55 265.726 508.001 265.659 508.401H255.524C255.607 509.402 255.957 510.186 256.575 510.754C257.192 511.321 257.951 511.604 258.852 511.604C260.153 511.604 261.079 511.046 261.63 509.928H265.409C265.008 511.262 264.241 512.364 263.106 513.231C261.972 514.082 260.579 514.507 258.927 514.507C257.592 514.507 256.391 514.215 255.323 513.632C254.272 513.031 253.447 512.188 252.846 511.104C252.262 510.02 251.97 508.768 251.97 507.35C251.97 505.915 252.262 504.656 252.846 503.571C253.43 502.487 254.247 501.653 255.298 501.069C256.35 500.485 257.559 500.193 258.927 500.193C260.245 500.193 261.421 500.476 262.456 501.044C263.507 501.611 264.316 502.42 264.883 503.471C265.467 504.506 265.759 505.698 265.759 507.05ZM262.13 506.049C262.114 505.148 261.788 504.43 261.154 503.897C260.52 503.346 259.745 503.071 258.827 503.071C257.96 503.071 257.225 503.338 256.625 503.872C256.041 504.389 255.682 505.114 255.549 506.049H262.13ZM271.82 502.57C272.271 501.836 272.854 501.261 273.572 500.843C274.306 500.426 275.14 500.218 276.074 500.218V503.897H275.148C274.047 503.897 273.213 504.155 272.646 504.672C272.095 505.19 271.82 506.09 271.82 507.375V514.282H268.316V500.418H271.82V502.57Z" fill="white"/>
<path d="M93.1776 541.955V539.678H97.7323V555.641H95.2141V541.955H93.1776ZM111.453 541.824H104.118V546.182C104.424 545.773 104.877 545.43 105.475 545.152C106.089 544.875 106.738 544.736 107.424 544.736C108.651 544.736 109.643 544.999 110.402 545.525C111.176 546.05 111.724 546.715 112.045 547.517C112.38 548.32 112.548 549.167 112.548 550.058C112.548 551.138 112.337 552.101 111.913 552.948C111.505 553.78 110.884 554.437 110.052 554.919C109.235 555.4 108.227 555.641 107.03 555.641C105.439 555.641 104.162 555.247 103.198 554.459C102.235 553.671 101.658 552.627 101.468 551.328H103.899C104.059 552.014 104.417 552.561 104.972 552.97C105.527 553.364 106.22 553.561 107.052 553.561C108.089 553.561 108.862 553.247 109.373 552.62C109.899 551.992 110.162 551.16 110.162 550.123C110.162 549.072 109.899 548.269 109.373 547.714C108.848 547.145 108.074 546.86 107.052 546.86C106.337 546.86 105.731 547.043 105.235 547.408C104.753 547.758 104.402 548.24 104.184 548.853H101.819V539.634H111.453V541.824ZM137.368 543.576L133.623 555.641H130.996L128.565 546.729L126.134 555.641H123.507L119.74 543.576H122.28L124.799 553.276L127.361 543.576H129.966L132.419 553.233L134.915 543.576H137.368Z" fill="white"/>
<rect x="397.975" y="489.015" width="183.376" height="72.8931" stroke="white" stroke-opacity="0.06" stroke-width="1.5641"/>
<rect x="412.833" y="503.874" width="43.1751" height="43.1751" rx="5.68094" fill="#F7F7F7"/>
<path d="M443.51 523.189V528.249H425.331V523.189H443.51Z" fill="#B0AEAE"/>
<path d="M485.176 517.982V514.35H491.961V534.874H487.907V517.982H485.176Z" fill="white"/>
<rect x="523.316" y="503.874" width="43.1751" height="43.1751" rx="5.68094" fill="#FFCC29"/>
<path d="M552.503 527.145H546.739V533.061H542.714V527.145H536.951V523.424H542.714V517.509H546.739V523.424H552.503V527.145Z" fill="#1E1E1E"/>
<path d="M605.244 476.29C596.12 476.29 588.724 468.894 588.724 459.769C588.724 450.645 596.12 443.249 605.244 443.249C614.369 443.249 621.765 450.645 621.765 459.769C621.765 468.894 614.369 476.29 605.244 476.29ZM612.82 454.952C613.13 454.642 613.13 454.137 612.82 453.827L611.132 452.141C610.822 451.83 610.318 451.83 610.008 452.141L605.228 456.92L600.448 452.141C600.138 451.83 599.634 451.83 599.324 452.141L597.636 453.827C597.326 454.137 597.326 454.642 597.636 454.952L602.417 459.733L597.636 464.511C597.326 464.821 597.326 465.325 597.636 465.636L599.324 467.323C599.634 467.633 600.138 467.633 600.448 467.323L605.228 462.542L610.008 467.323C610.318 467.633 610.822 467.633 611.132 467.323L612.82 465.636C613.13 465.325 613.13 464.821 612.82 464.511L608.039 459.733L612.82 454.952Z" fill="#FFCC29"/>
</g>
<g filter="url(#filter5_b_104_194)">
<rect x="631.5" y="459.769" width="610" height="131.385" rx="6.25641" fill="black" fill-opacity="0.4"/>
<rect x="632.282" y="460.551" width="608.436" height="129.821" rx="5.47436" stroke="#FFCC29" stroke-width="1.5641"/>
<path d="M707.009 495.437V492.936H702.759V489.601H696.928H694.427H681.247V511.28H687.837V524.709C687.837 526.496 686.383 527.95 684.596 527.95H675.304C673.985 527.95 672.912 526.877 672.912 525.558V513.103H677.358V504.518H676.142V499.45H667.291V504.518H666.076V513.103H670.411V525.558C670.411 528.256 672.606 530.451 675.304 530.451H684.596C687.762 530.451 690.338 527.875 690.338 524.709V511.28H696.928V503.94H702.759V500.606H707.009V498.105H702.759V495.437H707.009ZM669.792 501.951H673.641V504.518H669.792V501.951ZM668.577 510.602V510.602V507.019H674.857V510.602H668.577ZM694.427 503.94V508.779H683.748V492.102H694.427V503.94ZM700.258 501.439H696.928V492.102H700.258V501.439Z" fill="#FFCC29"/>
<path d="M671.453 502.613H670.226V503.672H671.453V502.613Z" fill="#FFCC29"/>
<path d="M673.205 502.613H671.978V503.672H673.205V502.613Z" fill="#FFCC29"/>
<path d="M741.399 496.814V514.282H737.896V502.921L733.216 514.282H730.563L725.858 502.921V514.282H722.355V496.814H726.334L731.889 509.803L737.445 496.814H741.399ZM751.019 514.507C749.685 514.507 748.483 514.215 747.416 513.632C746.348 513.031 745.505 512.188 744.888 511.104C744.288 510.02 743.987 508.768 743.987 507.35C743.987 505.932 744.296 504.681 744.913 503.596C745.547 502.512 746.406 501.678 747.491 501.094C748.575 500.493 749.785 500.193 751.12 500.193C752.454 500.193 753.664 500.493 754.748 501.094C755.833 501.678 756.684 502.512 757.301 503.596C757.935 504.681 758.252 505.932 758.252 507.35C758.252 508.768 757.926 510.02 757.276 511.104C756.642 512.188 755.774 513.031 754.673 513.632C753.589 514.215 752.371 514.507 751.019 514.507ZM751.019 511.454C751.653 511.454 752.246 511.304 752.796 511.004C753.363 510.687 753.814 510.22 754.148 509.602C754.481 508.985 754.648 508.234 754.648 507.35C754.648 506.032 754.298 505.023 753.597 504.322C752.913 503.605 752.07 503.246 751.069 503.246C750.068 503.246 749.226 503.605 748.542 504.322C747.875 505.023 747.541 506.032 747.541 507.35C747.541 508.668 747.866 509.686 748.517 510.403C749.184 511.104 750.018 511.454 751.019 511.454ZM764.325 502.445C764.776 501.778 765.393 501.236 766.177 500.818C766.978 500.401 767.887 500.193 768.905 500.193C770.09 500.193 771.157 500.485 772.108 501.069C773.076 501.653 773.835 502.487 774.386 503.571C774.953 504.639 775.237 505.882 775.237 507.3C775.237 508.718 774.953 509.978 774.386 511.079C773.835 512.163 773.076 513.006 772.108 513.607C771.157 514.207 770.09 514.507 768.905 514.507C767.871 514.507 766.961 514.307 766.177 513.907C765.41 513.49 764.793 512.956 764.325 512.305V514.282H760.822V495.763H764.325V502.445ZM771.658 507.3C771.658 506.466 771.483 505.748 771.132 505.148C770.799 504.531 770.348 504.063 769.781 503.746C769.23 503.429 768.63 503.271 767.979 503.271C767.345 503.271 766.745 503.438 766.177 503.771C765.627 504.088 765.176 504.556 764.826 505.173C764.492 505.79 764.325 506.516 764.325 507.35C764.325 508.184 764.492 508.91 764.826 509.527C765.176 510.145 765.627 510.62 766.177 510.954C766.745 511.271 767.345 511.429 767.979 511.429C768.63 511.429 769.23 511.262 769.781 510.929C770.348 510.595 770.799 510.12 771.132 509.502C771.483 508.885 771.658 508.151 771.658 507.3ZM779.559 498.766C778.942 498.766 778.425 498.574 778.008 498.191C777.607 497.79 777.407 497.298 777.407 496.714C777.407 496.13 777.607 495.646 778.008 495.263C778.425 494.862 778.942 494.662 779.559 494.662C780.177 494.662 780.686 494.862 781.086 495.263C781.503 495.646 781.712 496.13 781.712 496.714C781.712 497.298 781.503 497.79 781.086 498.191C780.686 498.574 780.177 498.766 779.559 498.766ZM781.286 500.418V514.282H777.783V500.418H781.286ZM788.251 495.763V514.282H784.748V495.763H788.251ZM804.601 507.05C804.601 507.55 804.568 508.001 804.501 508.401H794.366C794.449 509.402 794.799 510.186 795.417 510.754C796.034 511.321 796.793 511.604 797.694 511.604C798.995 511.604 799.921 511.046 800.472 509.928H804.251C803.85 511.262 803.083 512.364 801.948 513.231C800.814 514.082 799.421 514.507 797.769 514.507C796.434 514.507 795.233 514.215 794.165 513.632C793.114 513.031 792.288 512.188 791.688 511.104C791.104 510.02 790.812 508.768 790.812 507.35C790.812 505.915 791.104 504.656 791.688 503.571C792.272 502.487 793.089 501.653 794.14 501.069C795.191 500.485 796.401 500.193 797.769 500.193C799.087 500.193 800.263 500.476 801.298 501.044C802.349 501.611 803.158 502.42 803.725 503.471C804.309 504.506 804.601 505.698 804.601 507.05ZM800.972 506.049C800.956 505.148 800.63 504.43 799.996 503.897C799.362 503.346 798.587 503.071 797.669 503.071C796.801 503.071 796.067 503.338 795.467 503.872C794.883 504.389 794.524 505.114 794.391 506.049H800.972ZM825.86 502.22C825.86 503.154 825.634 504.03 825.184 504.848C824.75 505.665 824.058 506.324 823.107 506.825C822.172 507.325 820.988 507.575 819.553 507.575H816.625V514.282H813.122V496.814H819.553C820.904 496.814 822.056 497.048 823.007 497.515C823.958 497.982 824.667 498.625 825.134 499.442C825.618 500.26 825.86 501.185 825.86 502.22ZM819.403 504.747C820.371 504.747 821.088 504.531 821.555 504.097C822.022 503.646 822.256 503.021 822.256 502.22C822.256 500.518 821.305 499.667 819.403 499.667H816.625V504.747H819.403ZM836.155 500.218C837.206 500.218 838.14 500.451 838.958 500.919C839.775 501.369 840.409 502.045 840.86 502.946C841.327 503.83 841.561 504.898 841.561 506.149V514.282H838.057V506.624C838.057 505.523 837.782 504.681 837.231 504.097C836.681 503.496 835.93 503.196 834.979 503.196C834.011 503.196 833.244 503.496 832.677 504.097C832.126 504.681 831.851 505.523 831.851 506.624V514.282H828.347V495.763H831.851V502.145C832.301 501.544 832.902 501.077 833.653 500.743C834.403 500.393 835.237 500.218 836.155 500.218ZM851.049 514.507C849.714 514.507 848.513 514.215 847.445 513.632C846.377 513.031 845.535 512.188 844.917 511.104C844.317 510.02 844.016 508.768 844.016 507.35C844.016 505.932 844.325 504.681 844.942 503.596C845.576 502.512 846.436 501.678 847.52 501.094C848.604 500.493 849.814 500.193 851.149 500.193C852.483 500.193 853.693 500.493 854.777 501.094C855.862 501.678 856.713 502.512 857.33 503.596C857.964 504.681 858.281 505.932 858.281 507.35C858.281 508.768 857.956 510.02 857.305 511.104C856.671 512.188 855.804 513.031 854.702 513.632C853.618 514.215 852.4 514.507 851.049 514.507ZM851.049 511.454C851.683 511.454 852.275 511.304 852.825 511.004C853.393 510.687 853.843 510.22 854.177 509.602C854.511 508.985 854.677 508.234 854.677 507.35C854.677 506.032 854.327 505.023 853.626 504.322C852.942 503.605 852.1 503.246 851.099 503.246C850.098 503.246 849.255 503.605 848.571 504.322C847.904 505.023 847.57 506.032 847.57 507.35C847.57 508.668 847.895 509.686 848.546 510.403C849.213 511.104 850.048 511.454 851.049 511.454ZM868.534 500.218C870.186 500.218 871.52 500.743 872.538 501.794C873.556 502.829 874.065 504.28 874.065 506.149V514.282H870.561V506.624C870.561 505.523 870.286 504.681 869.735 504.097C869.185 503.496 868.434 503.196 867.483 503.196C866.515 503.196 865.748 503.496 865.181 504.097C864.63 504.681 864.355 505.523 864.355 506.624V514.282H860.851V500.418H864.355V502.145C864.822 501.544 865.414 501.077 866.132 500.743C866.866 500.393 867.666 500.218 868.534 500.218ZM890.285 507.05C890.285 507.55 890.251 508.001 890.184 508.401H880.049C880.133 509.402 880.483 510.186 881.1 510.754C881.717 511.321 882.477 511.604 883.377 511.604C884.679 511.604 885.605 511.046 886.155 509.928H889.934C889.534 511.262 888.766 512.364 887.632 513.231C886.497 514.082 885.104 514.507 883.453 514.507C882.118 514.507 880.917 514.215 879.849 513.632C878.798 513.031 877.972 512.188 877.371 511.104C876.787 510.02 876.495 508.768 876.495 507.35C876.495 505.915 876.787 504.656 877.371 503.571C877.955 502.487 878.773 501.653 879.824 501.069C880.875 500.485 882.085 500.193 883.453 500.193C884.771 500.193 885.947 500.476 886.981 501.044C888.032 501.611 888.841 502.42 889.409 503.471C889.993 504.506 890.285 505.698 890.285 507.05ZM886.656 506.049C886.639 505.148 886.314 504.43 885.68 503.897C885.046 503.346 884.27 503.071 883.352 503.071C882.485 503.071 881.751 503.338 881.15 503.872C880.566 504.389 880.208 505.114 880.074 506.049H886.656ZM897.954 505.523C897.954 503.805 898.338 502.27 899.105 500.919C899.889 499.55 900.949 498.491 902.284 497.74C903.635 496.973 905.145 496.589 906.813 496.589C908.765 496.589 910.475 497.09 911.943 498.091C913.412 499.092 914.438 500.476 915.022 502.245H910.993C910.592 501.411 910.025 500.785 909.291 500.368C908.573 499.951 907.739 499.742 906.788 499.742C905.77 499.742 904.861 499.984 904.06 500.468C903.276 500.935 902.659 501.603 902.209 502.47C901.775 503.338 901.558 504.355 901.558 505.523C901.558 506.674 901.775 507.692 902.209 508.576C902.659 509.444 903.276 510.12 904.06 510.603C904.861 511.071 905.77 511.304 906.788 511.304C907.739 511.304 908.573 511.096 909.291 510.679C910.025 510.245 910.592 509.611 910.993 508.777H915.022C914.438 510.562 913.412 511.955 911.943 512.956C910.492 513.94 908.782 514.432 906.813 514.432C905.145 514.432 903.635 514.057 902.284 513.306C900.949 512.539 899.889 511.479 899.105 510.128C898.338 508.777 897.954 507.242 897.954 505.523ZM925.822 500.218C926.873 500.218 927.808 500.451 928.625 500.919C929.443 501.369 930.077 502.045 930.527 502.946C930.994 503.83 931.228 504.898 931.228 506.149V514.282H927.724V506.624C927.724 505.523 927.449 504.681 926.898 504.097C926.348 503.496 925.597 503.196 924.646 503.196C923.678 503.196 922.911 503.496 922.344 504.097C921.793 504.681 921.518 505.523 921.518 506.624V514.282H918.014V495.763H921.518V502.145C921.968 501.544 922.569 501.077 923.32 500.743C924.07 500.393 924.905 500.218 925.822 500.218ZM933.659 507.3C933.659 505.899 933.934 504.656 934.484 503.571C935.052 502.487 935.811 501.653 936.762 501.069C937.729 500.485 938.805 500.193 939.99 500.193C941.024 500.193 941.925 500.401 942.693 500.818C943.477 501.236 944.103 501.761 944.57 502.395V500.418H948.098V514.282H944.57V512.255C944.119 512.906 943.494 513.448 942.693 513.882C941.909 514.299 940.999 514.507 939.965 514.507C938.797 514.507 937.729 514.207 936.762 513.607C935.811 513.006 935.052 512.163 934.484 511.079C933.934 509.978 933.659 508.718 933.659 507.3ZM944.57 507.35C944.57 506.499 944.403 505.774 944.069 505.173C943.735 504.556 943.285 504.088 942.718 503.771C942.151 503.438 941.542 503.271 940.891 503.271C940.24 503.271 939.64 503.429 939.089 503.746C938.539 504.063 938.088 504.531 937.738 505.148C937.404 505.748 937.237 506.466 937.237 507.3C937.237 508.134 937.404 508.868 937.738 509.502C938.088 510.12 938.539 510.595 939.089 510.929C939.656 511.262 940.257 511.429 940.891 511.429C941.542 511.429 942.151 511.271 942.718 510.954C943.285 510.62 943.735 510.153 944.069 509.552C944.403 508.935 944.57 508.201 944.57 507.35ZM955.024 502.57C955.474 501.836 956.058 501.261 956.776 500.843C957.51 500.426 958.344 500.218 959.278 500.218V503.897H958.352C957.251 503.897 956.417 504.155 955.85 504.672C955.299 505.19 955.024 506.09 955.024 507.375V514.282H951.52V500.418H955.024V502.57ZM967.069 500.193C968.103 500.193 969.012 500.401 969.796 500.818C970.58 501.219 971.198 501.744 971.648 502.395V500.418H975.177V514.382C975.177 515.667 974.918 516.81 974.401 517.811C973.884 518.829 973.108 519.629 972.074 520.213C971.039 520.814 969.788 521.114 968.32 521.114C966.351 521.114 964.733 520.655 963.465 519.738C962.214 518.82 961.504 517.569 961.338 515.984H964.816C965 516.618 965.392 517.118 965.992 517.486C966.61 517.869 967.352 518.061 968.22 518.061C969.237 518.061 970.063 517.752 970.697 517.135C971.331 516.535 971.648 515.617 971.648 514.382V512.23C971.198 512.881 970.572 513.423 969.771 513.857C968.987 514.291 968.086 514.507 967.069 514.507C965.901 514.507 964.833 514.207 963.865 513.607C962.898 513.006 962.13 512.163 961.563 511.079C961.012 509.978 960.737 508.718 960.737 507.3C960.737 505.899 961.012 504.656 961.563 503.571C962.13 502.487 962.889 501.653 963.84 501.069C964.808 500.485 965.884 500.193 967.069 500.193ZM971.648 507.35C971.648 506.499 971.481 505.774 971.148 505.173C970.814 504.556 970.364 504.088 969.796 503.771C969.229 503.438 968.62 503.271 967.969 503.271C967.319 503.271 966.718 503.429 966.168 503.746C965.617 504.063 965.167 504.531 964.816 505.148C964.483 505.748 964.316 506.466 964.316 507.3C964.316 508.134 964.483 508.868 964.816 509.502C965.167 510.12 965.617 510.595 966.168 510.929C966.735 511.262 967.335 511.429 967.969 511.429C968.62 511.429 969.229 511.271 969.796 510.954C970.364 510.62 970.814 510.153 971.148 509.552C971.481 508.935 971.648 508.201 971.648 507.35ZM991.487 507.05C991.487 507.55 991.454 508.001 991.387 508.401H981.251C981.335 509.402 981.685 510.186 982.302 510.754C982.92 511.321 983.679 511.604 984.58 511.604C985.881 511.604 986.807 511.046 987.358 509.928H991.137C990.736 511.262 989.969 512.364 988.834 513.231C987.7 514.082 986.307 514.507 984.655 514.507C983.32 514.507 982.119 514.215 981.051 513.632C980 513.031 979.174 512.188 978.574 511.104C977.99 510.02 977.698 508.768 977.698 507.35C977.698 505.915 977.99 504.656 978.574 503.571C979.158 502.487 979.975 501.653 981.026 501.069C982.077 500.485 983.287 500.193 984.655 500.193C985.973 500.193 987.149 500.476 988.184 501.044C989.235 501.611 990.044 502.42 990.611 503.471C991.195 504.506 991.487 505.698 991.487 507.05ZM987.858 506.049C987.841 505.148 987.516 504.43 986.882 503.897C986.248 503.346 985.472 503.071 984.555 503.071C983.687 503.071 982.953 503.338 982.353 503.872C981.769 504.389 981.41 505.114 981.276 506.049H987.858ZM997.548 502.57C997.998 501.836 998.582 501.261 999.3 500.843C1000.03 500.426 1000.87 500.218 1001.8 500.218V503.897H1000.88C999.775 503.897 998.941 504.155 998.374 504.672C997.823 505.19 997.548 506.09 997.548 507.375V514.282H994.044V500.418H997.548V502.57Z" fill="white"/>
<path d="M721.416 542.502V539.678H726.694V555.641H723.54V542.502H721.416ZM740.452 542.327H733.357V546.072C733.664 545.692 734.102 545.386 734.671 545.152C735.24 544.904 735.846 544.78 736.488 544.78C737.656 544.78 738.612 545.035 739.357 545.546C740.101 546.057 740.642 546.714 740.977 547.517C741.313 548.305 741.481 549.152 741.481 550.057C741.481 551.736 740.999 553.086 740.036 554.108C739.087 555.13 737.729 555.641 735.963 555.641C734.299 555.641 732.97 555.225 731.977 554.393C730.985 553.561 730.423 552.473 730.291 551.13H733.269C733.401 551.714 733.693 552.181 734.145 552.531C734.612 552.882 735.204 553.057 735.919 553.057C736.78 553.057 737.43 552.787 737.868 552.247C738.306 551.707 738.525 550.991 738.525 550.101C738.525 549.196 738.299 548.51 737.846 548.042C737.408 547.561 736.758 547.32 735.897 547.32C735.284 547.32 734.773 547.473 734.364 547.78C733.956 548.086 733.664 548.495 733.488 549.006H730.554V539.634H740.452V542.327ZM766.2 543.51L762.652 555.641H759.346L757.134 547.167L754.922 555.641H751.594L748.025 543.51H751.134L753.28 552.75L755.601 543.51H758.842L761.119 552.729L763.265 543.51H766.2Z" fill="white"/>
<rect x="1026.41" y="489.015" width="183.376" height="72.8931" stroke="white" stroke-opacity="0.06" stroke-width="1.5641"/>
<rect x="1041.27" y="503.874" width="43.1751" height="43.1751" rx="5.68094" fill="#F7F7F7"/>
<path d="M1071.95 523.189V528.249H1053.77V523.189H1071.95Z" fill="#B0AEAE"/>
<path d="M1113.61 517.982V514.35H1120.4V534.874H1116.34V517.982H1113.61Z" fill="white"/>
<rect x="1151.75" y="503.874" width="43.1751" height="43.1751" rx="5.68094" fill="#FFCC29"/>
<path d="M1180.94 527.145H1175.17V533.061H1171.15V527.145H1165.39V523.424H1171.15V517.509H1175.17V523.424H1180.94V527.145Z" fill="#1E1E1E"/>
<path d="M1235.24 476.29C1226.12 476.29 1218.72 468.894 1218.72 459.769C1218.72 450.645 1226.12 443.248 1235.24 443.248C1244.37 443.248 1251.77 450.645 1251.77 459.769C1251.77 468.894 1244.37 476.29 1235.24 476.29ZM1242.82 454.951C1243.13 454.641 1243.13 454.137 1242.82 453.827L1241.13 452.14C1240.82 451.83 1240.32 451.83 1240.01 452.14L1235.23 456.92L1230.45 452.14C1230.14 451.83 1229.63 451.83 1229.32 452.14L1227.64 453.827C1227.33 454.137 1227.33 454.641 1227.64 454.951L1232.42 459.732L1227.64 464.511C1227.33 464.821 1227.33 465.325 1227.64 465.635L1229.32 467.323C1229.63 467.633 1230.14 467.633 1230.45 467.323L1235.23 462.542L1240.01 467.323C1240.32 467.633 1240.82 467.633 1241.13 467.323L1242.82 465.635C1243.13 465.325 1243.13 464.821 1242.82 464.511L1238.04 459.732L1242.82 454.951Z" fill="#FFCC29"/>
</g>
<g filter="url(#filter6_b_104_194)">
<rect x="317.282" y="679.936" width="608.436" height="129.821" rx="5.47436" stroke="white" stroke-width="1.5641"/>
<path d="M500.406 749.657H492.798L491.397 753.536H488.994L495.301 736.194H497.928L504.21 753.536H501.807L500.406 749.657ZM499.755 747.806L496.602 738.996L493.449 747.806H499.755ZM506.107 746.629C506.107 745.228 506.391 744.002 506.958 742.951C507.525 741.883 508.301 741.057 509.286 740.473C510.287 739.889 511.404 739.597 512.639 739.597C513.707 739.597 514.699 739.847 515.617 740.348C516.535 740.832 517.235 741.474 517.719 742.275V735.017H520.022V753.536H517.719V750.959C517.269 751.776 516.601 752.452 515.717 752.986C514.833 753.503 513.799 753.762 512.614 753.762C511.396 753.762 510.287 753.461 509.286 752.861C508.301 752.26 507.525 751.418 506.958 750.333C506.391 749.249 506.107 748.014 506.107 746.629ZM517.719 746.654C517.719 745.62 517.511 744.719 517.094 743.952C516.676 743.184 516.109 742.6 515.392 742.2C514.691 741.783 513.915 741.574 513.064 741.574C512.214 741.574 511.438 741.774 510.737 742.175C510.036 742.575 509.477 743.159 509.06 743.927C508.643 744.694 508.435 745.595 508.435 746.629C508.435 747.68 508.643 748.598 509.06 749.382C509.477 750.15 510.036 750.742 510.737 751.159C511.438 751.559 512.214 751.76 513.064 751.76C513.915 751.76 514.691 751.559 515.392 751.159C516.109 750.742 516.676 750.15 517.094 749.382C517.511 748.598 517.719 747.689 517.719 746.654ZM523.019 746.629C523.019 745.228 523.303 744.002 523.87 742.951C524.437 741.883 525.213 741.057 526.197 740.473C527.198 739.889 528.316 739.597 529.551 739.597C530.619 739.597 531.611 739.847 532.529 740.348C533.447 740.832 534.147 741.474 534.631 742.275V735.017H536.933V753.536H534.631V750.959C534.181 751.776 533.513 752.452 532.629 752.986C531.745 753.503 530.71 753.762 529.526 753.762C528.308 753.762 527.198 753.461 526.197 752.861C525.213 752.26 524.437 751.418 523.87 750.333C523.303 749.249 523.019 748.014 523.019 746.629ZM534.631 746.654C534.631 745.62 534.423 744.719 534.005 743.952C533.588 743.184 533.021 742.6 532.304 742.2C531.603 741.783 530.827 741.574 529.976 741.574C529.125 741.574 528.35 741.774 527.649 742.175C526.948 742.575 526.389 743.159 525.972 743.927C525.555 744.694 525.347 745.595 525.347 746.629C525.347 747.68 525.555 748.598 525.972 749.382C526.389 750.15 526.948 750.742 527.649 751.159C528.35 751.559 529.125 751.76 529.976 751.76C530.827 751.76 531.603 751.559 532.304 751.159C533.021 750.742 533.588 750.15 534.005 749.382C534.423 748.598 534.631 747.689 534.631 746.654ZM554.136 739.572C555.804 739.572 557.155 740.081 558.19 741.099C559.224 742.1 559.741 743.551 559.741 745.453V753.536H557.489V745.778C557.489 744.41 557.147 743.368 556.463 742.65C555.779 741.916 554.845 741.549 553.66 741.549C552.459 741.549 551.5 741.924 550.782 742.675C550.081 743.426 549.731 744.519 549.731 745.954V753.536H547.454V739.822H549.731V741.774C550.182 741.074 550.791 740.531 551.558 740.148C552.342 739.764 553.201 739.572 554.136 739.572ZM575.974 746.154C575.974 746.588 575.949 747.046 575.899 747.53H564.938C565.021 748.882 565.48 749.941 566.314 750.708C567.165 751.459 568.191 751.835 569.392 751.835C570.377 751.835 571.194 751.609 571.845 751.159C572.512 750.692 572.979 750.074 573.246 749.307H575.699C575.332 750.625 574.598 751.701 573.497 752.535C572.396 753.353 571.027 753.762 569.392 753.762C568.091 753.762 566.923 753.47 565.889 752.886C564.871 752.302 564.07 751.476 563.486 750.408C562.902 749.324 562.611 748.072 562.611 746.654C562.611 745.236 562.894 743.993 563.461 742.926C564.029 741.858 564.821 741.04 565.839 740.473C566.873 739.889 568.058 739.597 569.392 739.597C570.694 739.597 571.845 739.881 572.846 740.448C573.847 741.015 574.614 741.799 575.148 742.8C575.699 743.785 575.974 744.903 575.974 746.154ZM573.622 745.678C573.622 744.811 573.43 744.068 573.046 743.451C572.662 742.817 572.137 742.342 571.47 742.025C570.819 741.691 570.093 741.524 569.292 741.524C568.141 741.524 567.157 741.891 566.339 742.625C565.539 743.359 565.08 744.377 564.963 745.678H573.622ZM597.249 739.822L592.97 753.536H590.617L587.314 742.65L584.01 753.536H581.658L577.354 739.822H579.681L582.834 751.334L586.238 739.822H588.565L591.893 751.359L594.997 739.822H597.249ZM607.357 737.595C606.923 737.595 606.556 737.445 606.256 737.145C605.956 736.844 605.806 736.477 605.806 736.043C605.806 735.61 605.956 735.243 606.256 734.942C606.556 734.642 606.923 734.492 607.357 734.492C607.774 734.492 608.125 734.642 608.408 734.942C608.709 735.243 608.859 735.61 608.859 736.043C608.859 736.477 608.709 736.844 608.408 737.145C608.125 737.445 607.774 737.595 607.357 737.595ZM608.458 739.822V753.536H606.181V739.822H608.458ZM615.117 741.699V749.783C615.117 750.45 615.259 750.925 615.543 751.209C615.826 751.476 616.319 751.609 617.019 751.609H618.696V753.536H616.644C615.376 753.536 614.425 753.244 613.791 752.66C613.157 752.077 612.84 751.117 612.84 749.783V741.699H611.063V739.822H612.84V736.369H615.117V739.822H618.696V741.699H615.117ZM633.968 746.154C633.968 746.588 633.943 747.046 633.893 747.53H622.932C623.015 748.882 623.474 749.941 624.308 750.708C625.159 751.459 626.185 751.835 627.386 751.835C628.371 751.835 629.188 751.609 629.839 751.159C630.506 750.692 630.973 750.074 631.24 749.307H633.693C633.326 750.625 632.592 751.701 631.491 752.535C630.39 753.353 629.021 753.762 627.386 753.762C626.085 753.762 624.917 753.47 623.883 752.886C622.865 752.302 622.064 751.476 621.48 750.408C620.896 749.324 620.604 748.072 620.604 746.654C620.604 745.236 620.888 743.993 621.455 742.926C622.023 741.858 622.815 741.04 623.833 740.473C624.867 739.889 626.052 739.597 627.386 739.597C628.688 739.597 629.839 739.881 630.84 740.448C631.841 741.015 632.608 741.799 633.142 742.8C633.693 743.785 633.968 744.903 633.968 746.154ZM631.616 745.678C631.616 744.811 631.424 744.068 631.04 743.451C630.656 742.817 630.131 742.342 629.464 742.025C628.813 741.691 628.087 741.524 627.286 741.524C626.135 741.524 625.151 741.891 624.333 742.625C623.532 743.359 623.074 744.377 622.957 745.678H631.616ZM653.466 739.572C654.534 739.572 655.485 739.797 656.319 740.248C657.153 740.682 657.812 741.341 658.296 742.225C658.78 743.109 659.022 744.185 659.022 745.453V753.536H656.769V745.778C656.769 744.41 656.427 743.368 655.743 742.65C655.076 741.916 654.167 741.549 653.016 741.549C651.831 741.549 650.888 741.933 650.188 742.7C649.487 743.451 649.137 744.544 649.137 745.979V753.536H646.884V745.778C646.884 744.41 646.542 743.368 645.858 742.65C645.191 741.916 644.282 741.549 643.13 741.549C641.946 741.549 641.003 741.933 640.303 742.7C639.602 743.451 639.252 744.544 639.252 745.979V753.536H636.974V739.822H639.252V741.799C639.702 741.082 640.303 740.531 641.053 740.148C641.821 739.764 642.663 739.572 643.581 739.572C644.732 739.572 645.75 739.831 646.634 740.348C647.518 740.865 648.177 741.624 648.611 742.625C648.995 741.658 649.629 740.907 650.513 740.373C651.397 739.839 652.382 739.572 653.466 739.572ZM667.612 753.762C666.561 753.762 665.619 753.586 664.785 753.236C663.95 752.869 663.291 752.369 662.808 751.735C662.324 751.084 662.057 750.341 662.007 749.507H664.359C664.426 750.191 664.743 750.75 665.31 751.184C665.894 751.618 666.653 751.835 667.587 751.835C668.455 751.835 669.139 751.643 669.64 751.259C670.14 750.875 670.39 750.391 670.39 749.808C670.39 749.207 670.123 748.765 669.589 748.481C669.056 748.181 668.23 747.889 667.112 747.605C666.094 747.338 665.26 747.071 664.609 746.804C663.975 746.521 663.425 746.112 662.958 745.578C662.507 745.028 662.282 744.31 662.282 743.426C662.282 742.725 662.491 742.083 662.908 741.499C663.325 740.915 663.917 740.456 664.684 740.123C665.452 739.772 666.328 739.597 667.312 739.597C668.83 739.597 670.057 739.981 670.991 740.748C671.925 741.516 672.426 742.567 672.492 743.902H670.215C670.165 743.184 669.873 742.609 669.339 742.175C668.822 741.741 668.121 741.524 667.237 741.524C666.42 741.524 665.769 741.699 665.285 742.05C664.801 742.4 664.559 742.859 664.559 743.426C664.559 743.876 664.701 744.252 664.985 744.552C665.285 744.836 665.652 745.069 666.086 745.253C666.536 745.42 667.154 745.612 667.938 745.828C668.922 746.095 669.723 746.362 670.34 746.629C670.958 746.88 671.483 747.263 671.917 747.78C672.367 748.298 672.601 748.973 672.618 749.808C672.618 750.558 672.409 751.234 671.992 751.835C671.575 752.435 670.983 752.911 670.215 753.261C669.464 753.595 668.597 753.762 667.612 753.762Z" fill="white"/>
<rect x="711.707" y="722.949" width="43.1751" height="43.1751" rx="5.68094" fill="#FFCC29"/>
<path d="M740.893 746.219H735.13V752.135H731.104V746.219H725.341V742.499H731.104V736.583H735.13V742.499H740.893V746.219Z" fill="#1E1E1E"/>
</g>
<path d="M0 930.539H1243" stroke="#706D6D" stroke-opacity="0.42"/>
<rect x="201.5" y="1051.04" width="840" height="63.9053" rx="31.9526" stroke="white"/>
<path d="M593.078 1091.43C592.145 1091.43 591.305 1091.27 590.558 1090.95C589.811 1090.62 589.225 1090.15 588.798 1089.55C588.371 1088.95 588.158 1088.25 588.158 1087.45H590.598C590.651 1088.05 590.885 1088.54 591.298 1088.93C591.725 1089.32 592.318 1089.51 593.078 1089.51C593.865 1089.51 594.478 1089.32 594.918 1088.95C595.358 1088.56 595.578 1088.07 595.578 1087.47C595.578 1087 595.438 1086.62 595.158 1086.33C594.891 1086.04 594.551 1085.81 594.138 1085.65C593.738 1085.49 593.178 1085.32 592.458 1085.13C591.551 1084.89 590.811 1084.65 590.238 1084.41C589.678 1084.16 589.198 1083.77 588.798 1083.25C588.398 1082.73 588.198 1082.04 588.198 1081.17C588.198 1080.37 588.398 1079.67 588.798 1079.07C589.198 1078.47 589.758 1078.01 590.478 1077.69C591.198 1077.37 592.031 1077.21 592.978 1077.21C594.325 1077.21 595.425 1077.55 596.278 1078.23C597.145 1078.9 597.625 1079.82 597.718 1080.99H595.198C595.158 1080.48 594.918 1080.05 594.478 1079.69C594.038 1079.33 593.458 1079.15 592.738 1079.15C592.085 1079.15 591.551 1079.32 591.138 1079.65C590.725 1079.98 590.518 1080.46 590.518 1081.09C590.518 1081.52 590.645 1081.87 590.898 1082.15C591.165 1082.42 591.498 1082.63 591.898 1082.79C592.298 1082.95 592.845 1083.12 593.538 1083.31C594.458 1083.56 595.205 1083.82 595.778 1084.07C596.365 1084.32 596.858 1084.72 597.258 1085.25C597.671 1085.77 597.878 1086.47 597.878 1087.35C597.878 1088.06 597.685 1088.72 597.298 1089.35C596.925 1089.98 596.371 1090.48 595.638 1090.87C594.918 1091.24 594.065 1091.43 593.078 1091.43ZM610.668 1085.51C610.668 1085.92 610.642 1086.3 610.588 1086.63H602.168C602.235 1087.51 602.562 1088.22 603.148 1088.75C603.735 1089.28 604.455 1089.55 605.308 1089.55C606.535 1089.55 607.402 1089.04 607.908 1088.01H610.368C610.035 1089.02 609.428 1089.86 608.548 1090.51C607.682 1091.15 606.602 1091.47 605.308 1091.47C604.255 1091.47 603.308 1091.24 602.468 1090.77C601.642 1090.29 600.988 1089.62 600.508 1088.77C600.042 1087.9 599.808 1086.9 599.808 1085.77C599.808 1084.64 600.035 1083.64 600.488 1082.79C600.955 1081.92 601.602 1081.26 602.428 1080.79C603.268 1080.32 604.228 1080.09 605.308 1080.09C606.348 1080.09 607.275 1080.32 608.088 1080.77C608.902 1081.22 609.535 1081.86 609.988 1082.69C610.442 1083.5 610.668 1084.44 610.668 1085.51ZM608.288 1084.79C608.275 1083.95 607.975 1083.28 607.388 1082.77C606.802 1082.26 606.075 1082.01 605.208 1082.01C604.422 1082.01 603.748 1082.26 603.188 1082.77C602.628 1083.26 602.295 1083.94 602.188 1084.79H608.288ZM618.472 1080.09C619.339 1080.09 620.112 1080.27 620.792 1080.63C621.485 1080.99 622.025 1081.52 622.412 1082.23C622.799 1082.94 622.992 1083.79 622.992 1084.79V1091.29H620.732V1085.13C620.732 1084.14 620.485 1083.39 619.992 1082.87C619.499 1082.34 618.825 1082.07 617.972 1082.07C617.119 1082.07 616.439 1082.34 615.932 1082.87C615.439 1083.39 615.192 1084.14 615.192 1085.13V1091.29H612.912V1080.27H615.192V1081.53C615.565 1081.08 616.039 1080.72 616.612 1080.47C617.199 1080.22 617.819 1080.09 618.472 1080.09ZM625.14 1085.73C625.14 1084.62 625.367 1083.64 625.82 1082.79C626.287 1081.94 626.914 1081.28 627.7 1080.81C628.5 1080.33 629.387 1080.09 630.36 1080.09C631.08 1080.09 631.787 1080.25 632.48 1080.57C633.187 1080.88 633.747 1081.29 634.16 1081.81V1076.49H636.46V1091.29H634.16V1089.63C633.787 1090.16 633.267 1090.6 632.6 1090.95C631.947 1091.3 631.194 1091.47 630.34 1091.47C629.38 1091.47 628.5 1091.23 627.7 1090.75C626.914 1090.26 626.287 1089.58 625.82 1088.71C625.367 1087.83 625.14 1086.84 625.14 1085.73ZM634.16 1085.77C634.16 1085.01 634 1084.35 633.68 1083.79C633.374 1083.23 632.967 1082.8 632.46 1082.51C631.954 1082.22 631.407 1082.07 630.82 1082.07C630.234 1082.07 629.687 1082.22 629.18 1082.51C628.674 1082.79 628.26 1083.21 627.94 1083.77C627.634 1084.32 627.48 1084.97 627.48 1085.73C627.48 1086.49 627.634 1087.16 627.94 1087.73C628.26 1088.3 628.674 1088.74 629.18 1089.05C629.7 1089.34 630.247 1089.49 630.82 1089.49C631.407 1089.49 631.954 1089.34 632.46 1089.05C632.967 1088.76 633.374 1088.33 633.68 1087.77C634 1087.2 634.16 1086.53 634.16 1085.77Z" fill="white"/>
<rect x="201" y="1139.44" width="841" height="64.9053" rx="32.4526" fill="#FFCC29"/>
<path d="M593.078 1180.33C592.145 1180.33 591.305 1180.17 590.558 1179.85C589.811 1179.52 589.225 1179.05 588.798 1178.45C588.371 1177.85 588.158 1177.15 588.158 1176.35H590.598C590.651 1176.95 590.885 1177.45 591.298 1177.83C591.725 1178.22 592.318 1178.41 593.078 1178.41C593.865 1178.41 594.478 1178.23 594.918 1177.85C595.358 1177.47 595.578 1176.97 595.578 1176.37C595.578 1175.91 595.438 1175.53 595.158 1175.23C594.891 1174.94 594.551 1174.71 594.138 1174.55C593.738 1174.39 593.178 1174.22 592.458 1174.03C591.551 1173.79 590.811 1173.55 590.238 1173.31C589.678 1173.06 589.198 1172.67 588.798 1172.15C588.398 1171.63 588.198 1170.94 588.198 1170.07C588.198 1169.27 588.398 1168.57 588.798 1167.97C589.198 1167.37 589.758 1166.91 590.478 1166.59C591.198 1166.27 592.031 1166.11 592.978 1166.11C594.325 1166.11 595.425 1166.45 596.278 1167.13C597.145 1167.8 597.625 1168.72 597.718 1169.89H595.198C595.158 1169.39 594.918 1168.95 594.478 1168.59C594.038 1168.23 593.458 1168.05 592.738 1168.05C592.085 1168.05 591.551 1168.22 591.138 1168.55C590.725 1168.89 590.518 1169.37 590.518 1169.99C590.518 1170.42 590.645 1170.77 590.898 1171.05C591.165 1171.32 591.498 1171.53 591.898 1171.69C592.298 1171.85 592.845 1172.03 593.538 1172.21C594.458 1172.47 595.205 1172.72 595.778 1172.97C596.365 1173.23 596.858 1173.62 597.258 1174.15C597.671 1174.67 597.878 1175.37 597.878 1176.25C597.878 1176.96 597.685 1177.63 597.298 1178.25C596.925 1178.88 596.371 1179.39 595.638 1179.77C594.918 1180.15 594.065 1180.33 593.078 1180.33ZM610.668 1174.41C610.668 1174.83 610.642 1175.2 610.588 1175.53H602.168C602.235 1176.41 602.562 1177.12 603.148 1177.65C603.735 1178.19 604.455 1178.45 605.308 1178.45C606.535 1178.45 607.402 1177.94 607.908 1176.91H610.368C610.035 1177.93 609.428 1178.76 608.548 1179.41C607.682 1180.05 606.602 1180.37 605.308 1180.37C604.255 1180.37 603.308 1180.14 602.468 1179.67C601.642 1179.19 600.988 1178.53 600.508 1177.67C600.042 1176.81 599.808 1175.81 599.808 1174.67C599.808 1173.54 600.035 1172.55 600.488 1171.69C600.955 1170.83 601.602 1170.16 602.428 1169.69C603.268 1169.23 604.228 1168.99 605.308 1168.99C606.348 1168.99 607.275 1169.22 608.088 1169.67C608.902 1170.13 609.535 1170.77 609.988 1171.59C610.442 1172.41 610.668 1173.35 610.668 1174.41ZM608.288 1173.69C608.275 1172.85 607.975 1172.18 607.388 1171.67C606.802 1171.17 606.075 1170.91 605.208 1170.91C604.422 1170.91 603.748 1171.17 603.188 1171.67C602.628 1172.17 602.295 1172.84 602.188 1173.69H608.288ZM618.472 1168.99C619.339 1168.99 620.112 1169.17 620.792 1169.53C621.485 1169.89 622.025 1170.43 622.412 1171.13C622.799 1171.84 622.992 1172.69 622.992 1173.69V1180.19H620.732V1174.03C620.732 1173.05 620.485 1172.29 619.992 1171.77C619.499 1171.24 618.825 1170.97 617.972 1170.97C617.119 1170.97 616.439 1171.24 615.932 1171.77C615.439 1172.29 615.192 1173.05 615.192 1174.03V1180.19H612.912V1169.17H615.192V1170.43C615.565 1169.98 616.039 1169.63 616.612 1169.37C617.199 1169.12 617.819 1168.99 618.472 1168.99ZM625.14 1174.63C625.14 1173.53 625.367 1172.55 625.82 1171.69C626.287 1170.84 626.914 1170.18 627.7 1169.71C628.5 1169.23 629.387 1168.99 630.36 1168.99C631.08 1168.99 631.787 1169.15 632.48 1169.47C633.187 1169.78 633.747 1170.19 634.16 1170.71V1165.39H636.46V1180.19H634.16V1178.53C633.787 1179.07 633.267 1179.51 632.6 1179.85C631.947 1180.2 631.194 1180.37 630.34 1180.37C629.38 1180.37 628.5 1180.13 627.7 1179.65C626.914 1179.16 626.287 1178.48 625.82 1177.61C625.367 1176.73 625.14 1175.74 625.14 1174.63ZM634.16 1174.67C634.16 1173.91 634 1173.25 633.68 1172.69C633.374 1172.13 632.967 1171.71 632.46 1171.41C631.954 1171.12 631.407 1170.97 630.82 1170.97C630.234 1170.97 629.687 1171.12 629.18 1171.41C628.674 1171.69 628.26 1172.11 627.94 1172.67C627.634 1173.22 627.48 1173.87 627.48 1174.63C627.48 1175.39 627.634 1176.06 627.94 1176.63C628.26 1177.21 628.674 1177.65 629.18 1177.95C629.7 1178.25 630.247 1178.39 630.82 1178.39C631.407 1178.39 631.954 1178.25 632.46 1177.95C632.967 1177.66 633.374 1177.23 633.68 1176.67C634 1176.1 634.16 1175.43 634.16 1174.67Z" fill="#201E1D"/>
<defs>
<filter id="filter0_b_104_194" x="-53.2436" y="-54.0768" width="733.565" height="261.205" filterUnits="userSpaceOnUse" color-interpolation-filters="sRGB">
<feFlood flood-opacity="0" result="BackgroundImageFix"/>
<feGaussianBlur in="BackgroundImageFix" stdDeviation="27.3718"/>
<feComposite in2="SourceAlpha" operator="in" result="effect1_backgroundBlur_104_194"/>
<feBlend mode="normal" in="SourceGraphic" in2="effect1_backgroundBlur_104_194" result="shape"/>
</filter>
<filter id="filter1_b_104_194" x="576.756" y="-54.0771" width="733.564" height="261.205" filterUnits="userSpaceOnUse" color-interpolation-filters="sRGB">
<feFlood flood-opacity="0" result="BackgroundImageFix"/>
<feGaussianBlur in="BackgroundImageFix" stdDeviation="27.3718"/>
<feComposite in2="SourceAlpha" operator="in" result="effect1_backgroundBlur_104_194"/>
<feBlend mode="normal" in="SourceGraphic" in2="effect1_backgroundBlur_104_194" result="shape"/>
</filter>
<filter id="filter2_b_104_194" x="-53.2436" y="165.308" width="733.564" height="261.205" filterUnits="userSpaceOnUse" color-interpolation-filters="sRGB">
<feFlood flood-opacity="0" result="BackgroundImageFix"/>
<feGaussianBlur in="BackgroundImageFix" stdDeviation="27.3718"/>
<feComposite in2="SourceAlpha" operator="in" result="effect1_backgroundBlur_104_194"/>
<feBlend mode="normal" in="SourceGraphic" in2="effect1_backgroundBlur_104_194" result="shape"/>
</filter>
<filter id="filter3_b_104_194" x="576.756" y="165.307" width="733.565" height="261.205" filterUnits="userSpaceOnUse" color-interpolation-filters="sRGB">
<feFlood flood-opacity="0" result="BackgroundImageFix"/>
<feGaussianBlur in="BackgroundImageFix" stdDeviation="27.3718"/>
<feComposite in2="SourceAlpha" operator="in" result="effect1_backgroundBlur_104_194"/>
<feBlend mode="normal" in="SourceGraphic" in2="effect1_backgroundBlur_104_194" result="shape"/>
</filter>
<filter id="filter4_b_104_194" x="-53.2436" y="384.692" width="733.565" height="261.205" filterUnits="userSpaceOnUse" color-interpolation-filters="sRGB">
<feFlood flood-opacity="0" result="BackgroundImageFix"/>
<feGaussianBlur in="BackgroundImageFix" stdDeviation="27.3718"/>
<feComposite in2="SourceAlpha" operator="in" result="effect1_backgroundBlur_104_194"/>
<feBlend mode="normal" in="SourceGraphic" in2="effect1_backgroundBlur_104_194" result="shape"/>
</filter>
<filter id="filter5_b_104_194" x="576.756" y="384.692" width="733.565" height="261.205" filterUnits="userSpaceOnUse" color-interpolation-filters="sRGB">
<feFlood flood-opacity="0" result="BackgroundImageFix"/>
<feGaussianBlur in="BackgroundImageFix" stdDeviation="27.3718"/>
<feComposite in2="SourceAlpha" operator="in" result="effect1_backgroundBlur_104_194"/>
<feBlend mode="normal" in="SourceGraphic" in2="effect1_backgroundBlur_104_194" result="shape"/>
</filter>
<filter id="filter6_b_104_194" x="261.756" y="624.41" width="719.487" height="240.872" filterUnits="userSpaceOnUse" color-interpolation-filters="sRGB">
<feFlood flood-opacity="0" result="BackgroundImageFix"/>
<feGaussianBlur in="BackgroundImageFix" stdDeviation="27.3718"/>
<feComposite in2="SourceAlpha" operator="in" result="effect1_backgroundBlur_104_194"/>
<feBlend mode="normal" in="SourceGraphic" in2="effect1_backgroundBlur_104_194" result="shape"/>
</filter>
</defs>
</svg>
