
<svg width="639" height="440" viewBox="0 0 639 440" fill="none" xmlns="http://www.w3.org/2000/svg">
<g clip-path="url(#clip0_104_80)">
<path d="M628.789 399.326C624.416 414.54 611.646 425.189 598.325 434.236C596.465 435.5 594.604 436.734 592.743 437.939C592.73 437.945 592.717 437.956 592.704 437.962C592.615 438.02 592.525 438.078 592.442 438.136C592.058 438.384 591.673 438.632 591.293 438.878L591.502 438.972C591.502 438.972 591.707 439.082 591.482 438.99C591.415 438.962 591.345 438.936 591.279 438.908C583.54 435.779 575.664 432.418 569.733 426.556C563.581 420.468 559.986 410.919 563.317 402.921C563.755 401.873 564.308 400.878 564.967 399.953C565.237 399.566 565.528 399.195 565.831 398.83C567.668 396.582 570.07 394.864 572.789 393.855C575.508 392.845 578.446 392.58 581.301 393.087C584.156 393.593 586.825 394.853 589.033 396.737C591.242 398.62 592.91 401.06 593.867 403.804C594.845 394.667 587.332 387.014 580.101 381.367C572.867 375.723 564.647 369.576 563.249 360.49C562.468 355.435 564.221 350.536 567.415 346.603C567.514 346.484 567.612 346.364 567.714 346.248C571.602 341.668 577.07 338.726 583.026 338.012C594.118 336.856 604.892 342.743 612.951 350.476C625.92 362.918 633.761 382.029 628.789 399.326Z" fill="#F2F2F2"/>
<path d="M607.939 379.427C610.068 382.748 611.703 386.362 612.791 390.156C613.712 393.547 614.121 397.057 614.007 400.57C613.71 407.798 611.686 414.848 608.106 421.129C605.409 425.893 602.122 430.297 598.324 434.235C596.464 435.499 594.604 436.733 592.742 437.938C592.73 437.944 592.717 437.956 592.704 437.961C592.614 438.019 592.525 438.077 592.441 438.135C592.057 438.383 591.673 438.632 591.292 438.877C591.292 438.877 591.707 439.081 591.482 438.989C591.415 438.961 591.345 438.936 591.278 438.907C591.972 433.206 591.292 427.42 589.297 422.036C587.301 416.652 584.048 411.825 579.809 407.962C575.56 404.157 570.474 401.412 564.966 399.953C565.236 399.565 565.527 399.194 565.83 398.83C567.957 399.428 570.028 400.213 572.017 401.177C579.128 404.601 584.95 410.23 588.623 417.23C591.918 423.586 593.336 430.754 592.711 437.89C593.029 437.601 593.347 437.306 593.656 437.014C599.536 431.516 604.759 425.206 608.294 417.924C611.361 411.757 612.868 404.929 612.683 398.04C612.395 390.529 609.41 383.571 605.089 377.514C600.352 371.052 594.757 365.27 588.458 360.329C582.11 355.231 575.164 350.931 567.775 347.525C567.608 347.447 567.478 347.308 567.411 347.136C567.344 346.964 567.345 346.773 567.414 346.602C567.464 346.449 567.571 346.322 567.714 346.247C567.787 346.216 567.867 346.201 567.946 346.204C568.026 346.208 568.104 346.229 568.175 346.267C569.087 346.688 569.993 347.115 570.892 347.56C578.377 351.27 585.375 355.899 591.722 361.338C597.854 366.58 603.626 372.568 607.939 379.427Z" fill="white"/>
<path d="M534.001 0.974365H8.52823C6.52675 0.976193 4.60776 1.77425 3.19252 3.19336C1.77728 4.61248 0.981433 6.53668 0.979675 8.54358V365.581C0.981431 367.588 1.77728 369.512 3.19252 370.931C4.60776 372.35 6.52674 373.148 8.52823 373.15H534.001C535.093 373.15 536.171 372.913 537.162 372.454C538.153 371.996 539.033 371.327 539.741 370.494C539.801 370.429 539.856 370.359 539.906 370.286C540.356 369.733 540.721 369.116 540.988 368.454C541.368 367.544 541.562 366.567 541.559 365.581V8.54362C541.557 6.5353 540.759 4.61 539.342 3.19072C537.925 1.77143 536.004 0.974263 534.001 0.974365ZM539.404 365.581C539.404 366.637 539.094 367.67 538.512 368.55C537.994 369.324 537.292 369.957 536.469 370.39C535.706 370.785 534.86 370.991 534.001 370.989H8.52823C7.09839 370.987 5.7276 370.417 4.71655 369.403C3.7055 368.389 3.13673 367.015 3.13499 365.581V8.54362C3.13673 7.10991 3.7055 5.73542 4.71655 4.72163C5.7276 3.70785 7.09839 3.13753 8.52823 3.13579H534.001C535.433 3.1356 536.805 3.70501 537.818 4.71896C538.831 5.73291 539.401 7.1085 539.404 8.54362V365.581Z" fill="#3F3D56"/>
<path d="M540.475 31.3123H2.05371V33.4761H540.475V31.3123Z" fill="#3F3D56"/>
<path d="M20.3978 23.6949C23.9733 23.6949 26.8718 20.7886 26.8718 17.2034C26.8718 13.6183 23.9733 10.7119 20.3978 10.7119C16.8223 10.7119 13.9238 13.6183 13.9238 17.2034C13.9238 20.7886 16.8223 23.6949 20.3978 23.6949Z" fill="#3F3D56"/>
<path d="M39.0103 23.6949C42.5857 23.6949 45.4843 20.7886 45.4843 17.2034C45.4843 13.6183 42.5857 10.7119 39.0103 10.7119C35.4348 10.7119 32.5363 13.6183 32.5363 17.2034C32.5363 20.7886 35.4348 23.6949 39.0103 23.6949Z" fill="#3F3D56"/>
<path d="M57.6234 23.6949C61.1989 23.6949 64.0974 20.7886 64.0974 17.2034C64.0974 13.6183 61.1989 10.7119 57.6234 10.7119C54.0479 10.7119 51.1494 13.6183 51.1494 17.2034C51.1494 20.7886 54.0479 23.6949 57.6234 23.6949Z" fill="#3F3D56"/>
<path d="M349.689 153.193C346.235 153.193 342.858 152.165 339.986 150.241C337.114 148.317 334.876 145.582 333.554 142.382C332.232 139.182 331.886 135.661 332.56 132.264C333.234 128.867 334.897 125.747 337.34 123.298C339.782 120.849 342.894 119.181 346.282 118.505C349.67 117.83 353.181 118.177 356.373 119.502C359.564 120.827 362.291 123.072 364.21 125.952C366.13 128.832 367.154 132.217 367.154 135.681C367.149 140.324 365.307 144.775 362.033 148.058C358.759 151.341 354.319 153.187 349.689 153.193ZM349.689 119.829C346.562 119.829 343.506 120.758 340.906 122.5C338.306 124.242 336.28 126.718 335.083 129.614C333.887 132.511 333.574 135.698 334.184 138.773C334.794 141.848 336.299 144.673 338.51 146.89C340.721 149.107 343.538 150.617 346.605 151.228C349.672 151.84 352.85 151.526 355.739 150.326C358.628 149.126 361.097 147.095 362.834 144.488C364.571 141.881 365.499 138.816 365.499 135.681C365.494 131.478 363.827 127.449 360.863 124.477C357.899 121.505 353.881 119.833 349.689 119.829Z" fill="#FFCC29"/>
<path d="M348.039 142.044C347.665 142.045 347.301 141.923 347.001 141.698L346.983 141.684L343.073 138.685C342.707 138.404 342.468 137.989 342.408 137.531C342.347 137.073 342.471 136.609 342.751 136.243C343.032 135.876 343.446 135.636 343.903 135.575C344.359 135.515 344.822 135.639 345.187 135.92L347.72 137.867L353.704 130.039C353.843 129.857 354.016 129.705 354.214 129.59C354.411 129.476 354.629 129.402 354.855 129.372C355.081 129.342 355.311 129.357 355.531 129.416C355.752 129.475 355.958 129.577 356.139 129.716L356.103 129.768L356.141 129.717C356.506 129.998 356.745 130.413 356.805 130.871C356.865 131.329 356.742 131.792 356.462 132.159L349.423 141.363C349.26 141.575 349.051 141.746 348.811 141.864C348.571 141.982 348.308 142.043 348.041 142.042L348.039 142.044Z" fill="#FFCC29"/>
<path d="M399.66 153.193C396.206 153.193 392.829 152.165 389.957 150.241C387.085 148.317 384.847 145.582 383.525 142.382C382.203 139.182 381.857 135.661 382.531 132.264C383.205 128.867 384.868 125.747 387.311 123.298C389.753 120.849 392.865 119.181 396.253 118.505C399.641 117.83 403.152 118.177 406.343 119.502C409.535 120.827 412.262 123.072 414.181 125.952C416.1 128.832 417.124 132.217 417.124 135.681C417.119 140.324 415.278 144.775 412.004 148.058C408.729 151.341 404.29 153.187 399.66 153.193ZM399.66 119.829C396.533 119.829 393.476 120.758 390.877 122.5C388.277 124.242 386.25 126.718 385.054 129.614C383.857 132.511 383.544 135.698 384.154 138.773C384.764 141.848 386.27 144.673 388.481 146.89C390.692 149.107 393.509 150.617 396.576 151.228C399.642 151.84 402.821 151.526 405.71 150.326C408.599 149.126 411.068 147.095 412.805 144.488C414.542 141.881 415.469 138.816 415.469 135.681C415.465 131.478 413.798 127.449 410.834 124.477C407.87 121.505 403.851 119.833 399.66 119.829Z" fill="#E6E6E6"/>
<path d="M405.948 141.739C405.738 141.949 405.454 142.067 405.157 142.067C404.861 142.067 404.577 141.949 404.367 141.739L400.176 137.537C400.083 137.443 399.956 137.391 399.824 137.391C399.692 137.391 399.565 137.443 399.471 137.537L395.281 141.739C395.071 141.949 394.787 142.067 394.49 142.067C394.194 142.067 393.909 141.949 393.7 141.739C393.49 141.529 393.372 141.244 393.372 140.946C393.372 140.649 393.49 140.364 393.7 140.154L397.89 135.952C397.984 135.858 398.036 135.731 398.036 135.598C398.036 135.466 397.984 135.339 397.891 135.245L393.699 131.043C393.49 130.833 393.372 130.548 393.372 130.25C393.372 129.953 393.49 129.668 393.699 129.458C393.909 129.248 394.193 129.13 394.49 129.13C394.786 129.13 395.071 129.248 395.28 129.458L399.471 133.66C399.565 133.754 399.691 133.806 399.823 133.806C399.955 133.806 400.082 133.754 400.176 133.66L404.366 129.458C404.576 129.248 404.86 129.13 405.157 129.13C405.453 129.13 405.738 129.248 405.947 129.458C406.157 129.668 406.275 129.953 406.275 130.251C406.275 130.548 406.157 130.833 405.947 131.043L401.757 135.245C401.663 135.339 401.611 135.466 401.611 135.599C401.611 135.731 401.663 135.858 401.757 135.952L405.947 140.154C406.157 140.364 406.274 140.649 406.274 140.947C406.274 141.244 406.157 141.529 405.948 141.739Z" fill="#E6E6E6"/>
<path d="M349.689 208.789C346.235 208.789 342.858 207.762 339.986 205.838C337.114 203.914 334.876 201.179 333.554 197.979C332.232 194.779 331.886 191.258 332.56 187.861C333.234 184.464 334.897 181.344 337.34 178.895C339.782 176.446 342.894 174.778 346.282 174.102C349.67 173.426 353.181 173.773 356.373 175.099C359.564 176.424 362.291 178.669 364.21 181.548C366.13 184.428 367.154 187.814 367.154 191.277C367.149 195.92 365.307 200.371 362.033 203.654C358.759 206.937 354.319 208.784 349.689 208.789ZM349.689 175.425C346.562 175.425 343.506 176.355 340.906 178.097C338.306 179.839 336.28 182.314 335.083 185.211C333.887 188.108 333.574 191.295 334.184 194.37C334.794 197.445 336.299 200.27 338.51 202.487C340.721 204.704 343.538 206.213 346.605 206.825C349.672 207.437 352.85 207.123 355.739 205.923C358.628 204.723 361.097 202.691 362.834 200.084C364.571 197.478 365.499 194.413 365.499 191.277C365.494 187.075 363.827 183.045 360.863 180.073C357.899 177.102 353.881 175.43 349.689 175.425Z" fill="#FFCC29"/>
<path d="M348.039 197.641C347.665 197.641 347.301 197.52 347.001 197.295L346.983 197.281L343.073 194.282C342.707 194.001 342.468 193.585 342.408 193.127C342.347 192.669 342.471 192.206 342.751 191.839C343.032 191.472 343.446 191.232 343.903 191.172C344.359 191.111 344.822 191.235 345.187 191.517L347.72 193.464L353.704 185.635C353.843 185.454 354.016 185.302 354.214 185.187C354.411 185.073 354.629 184.998 354.855 184.968C355.081 184.938 355.311 184.953 355.531 185.013C355.752 185.072 355.958 185.174 356.139 185.313L356.103 185.365L356.141 185.313C356.506 185.595 356.745 186.01 356.805 186.468C356.865 186.926 356.742 187.389 356.462 187.755L349.423 196.959C349.26 197.171 349.051 197.343 348.811 197.461C348.571 197.579 348.308 197.64 348.041 197.639L348.039 197.641Z" fill="#FFCC29"/>
<path d="M399.66 208.789C396.206 208.789 392.829 207.762 389.957 205.838C387.085 203.914 384.847 201.179 383.525 197.979C382.203 194.779 381.857 191.258 382.531 187.861C383.205 184.464 384.868 181.344 387.311 178.895C389.753 176.446 392.865 174.778 396.253 174.102C399.641 173.426 403.152 173.773 406.343 175.099C409.535 176.424 412.262 178.669 414.181 181.548C416.1 184.428 417.124 187.814 417.124 191.277C417.119 195.92 415.278 200.371 412.004 203.654C408.729 206.937 404.29 208.784 399.66 208.789ZM399.66 175.425C396.533 175.425 393.476 176.355 390.877 178.097C388.277 179.839 386.25 182.314 385.054 185.211C383.857 188.108 383.544 191.295 384.154 194.37C384.764 197.445 386.27 200.27 388.481 202.487C390.692 204.704 393.509 206.213 396.576 206.825C399.642 207.437 402.821 207.123 405.71 205.923C408.599 204.723 411.068 202.691 412.805 200.084C414.542 197.478 415.469 194.413 415.469 191.277C415.465 187.075 413.798 183.045 410.834 180.073C407.87 177.102 403.851 175.43 399.66 175.425Z" fill="#E6E6E6"/>
<path d="M405.948 197.337C405.738 197.547 405.454 197.664 405.157 197.664C404.861 197.664 404.577 197.547 404.367 197.337L400.176 193.135C400.082 193.041 399.956 192.988 399.824 192.988C399.692 192.988 399.565 193.041 399.471 193.134L395.281 197.337C395.071 197.547 394.787 197.665 394.49 197.665C394.194 197.665 393.909 197.547 393.7 197.337C393.49 197.126 393.372 196.841 393.372 196.544C393.372 196.247 393.49 195.962 393.7 195.751L397.89 191.549C397.984 191.455 398.036 191.328 398.036 191.196C398.036 191.064 397.984 190.937 397.89 190.843L393.699 186.641C393.49 186.43 393.372 186.145 393.372 185.848C393.372 185.551 393.49 185.266 393.699 185.056C393.909 184.845 394.193 184.727 394.49 184.727C394.786 184.727 395.071 184.845 395.28 185.056L399.471 189.258C399.565 189.351 399.691 189.404 399.823 189.404C399.955 189.404 400.082 189.351 400.176 189.258L404.366 185.056C404.576 184.845 404.86 184.727 405.157 184.727C405.453 184.727 405.738 184.845 405.947 185.056C406.157 185.266 406.275 185.551 406.275 185.848C406.275 186.146 406.157 186.431 405.947 186.641L401.757 190.843C401.663 190.937 401.611 191.064 401.611 191.196C401.611 191.329 401.663 191.456 401.757 191.55L405.947 195.752C406.157 195.962 406.274 196.247 406.274 196.544C406.274 196.841 406.157 197.126 405.948 197.337Z" fill="#E6E6E6"/>
<path d="M349.689 264.386C346.235 264.386 342.858 263.359 339.986 261.435C337.114 259.51 334.876 256.775 333.554 253.576C332.232 250.376 331.886 246.855 332.56 243.458C333.234 240.061 334.897 236.94 337.34 234.491C339.782 232.042 342.894 230.374 346.282 229.699C349.67 229.023 353.181 229.37 356.373 230.695C359.564 232.021 362.291 234.265 364.21 237.145C366.13 240.025 367.154 243.411 367.154 246.874C367.149 251.517 365.307 255.968 362.033 259.251C358.759 262.534 354.319 264.381 349.689 264.386ZM349.689 231.022C346.562 231.022 343.506 231.952 340.906 233.694C338.306 235.435 336.28 237.911 335.083 240.808C333.887 243.704 333.574 246.892 334.184 249.967C334.794 253.042 336.299 255.866 338.51 258.083C340.721 260.3 343.538 261.81 346.605 262.422C349.672 263.033 352.85 262.719 355.739 261.52C358.628 260.32 361.097 258.288 362.834 255.681C364.571 253.074 365.499 250.009 365.499 246.874C365.494 242.671 363.827 238.642 360.863 235.67C357.899 232.698 353.881 231.027 349.689 231.022Z" fill="#E6E6E6"/>
<path d="M348.039 253.239C347.665 253.239 347.301 253.118 347.001 252.893L346.983 252.879L343.073 249.88C342.707 249.599 342.468 249.183 342.408 248.725C342.347 248.267 342.471 247.804 342.751 247.437C343.032 247.07 343.446 246.83 343.903 246.77C344.359 246.709 344.822 246.833 345.187 247.114L347.72 249.062L353.704 241.233C353.843 241.052 354.016 240.899 354.214 240.785C354.411 240.671 354.629 240.596 354.855 240.566C355.081 240.536 355.311 240.551 355.531 240.61C355.752 240.67 355.958 240.772 356.139 240.911L356.103 240.963L356.141 240.911C356.506 241.193 356.745 241.608 356.805 242.066C356.865 242.523 356.742 242.986 356.462 243.353L349.423 252.557C349.26 252.769 349.051 252.941 348.811 253.059C348.571 253.177 348.308 253.237 348.041 253.237L348.039 253.239Z" fill="#E6E6E6"/>
<path d="M399.66 264.386C396.206 264.386 392.829 263.359 389.957 261.435C387.085 259.51 384.847 256.775 383.525 253.576C382.203 250.376 381.857 246.855 382.531 243.458C383.205 240.061 384.868 236.94 387.311 234.491C389.753 232.042 392.865 230.374 396.253 229.699C399.641 229.023 403.152 229.37 406.343 230.695C409.535 232.021 412.262 234.265 414.181 237.145C416.1 240.025 417.124 243.411 417.124 246.874C417.119 251.517 415.278 255.968 412.004 259.251C408.729 262.534 404.29 264.381 399.66 264.386ZM399.66 231.022C396.533 231.022 393.476 231.952 390.877 233.694C388.277 235.435 386.25 237.911 385.054 240.808C383.857 243.704 383.544 246.892 384.154 249.967C384.764 253.042 386.27 255.866 388.481 258.083C390.692 260.3 393.509 261.81 396.576 262.422C399.642 263.033 402.821 262.719 405.71 261.52C408.599 260.32 411.068 258.288 412.805 255.681C414.542 253.074 415.469 250.009 415.469 246.874C415.465 242.671 413.798 238.642 410.834 235.67C407.87 232.698 403.851 231.027 399.66 231.022Z" fill="#E6E6E6"/>
<path d="M405.948 252.934C405.738 253.144 405.454 253.261 405.157 253.261C404.861 253.261 404.577 253.144 404.367 252.934L400.176 248.732C400.082 248.638 399.956 248.585 399.824 248.585C399.692 248.585 399.565 248.638 399.471 248.731L395.281 252.934C395.071 253.144 394.787 253.262 394.49 253.262C394.194 253.262 393.909 253.144 393.7 252.934C393.49 252.723 393.372 252.438 393.372 252.141C393.372 251.844 393.49 251.558 393.7 251.348L397.89 247.146C397.984 247.052 398.036 246.925 398.036 246.793C398.036 246.661 397.984 246.534 397.89 246.44L393.699 242.238C393.49 242.027 393.372 241.742 393.372 241.445C393.372 241.148 393.49 240.863 393.699 240.652C393.909 240.442 394.193 240.324 394.49 240.324C394.786 240.324 395.071 240.442 395.28 240.652L399.471 244.855C399.565 244.948 399.691 245.001 399.823 245.001C399.955 245.001 400.082 244.948 400.176 244.855L404.366 240.653C404.576 240.443 404.86 240.326 405.156 240.326C405.453 240.326 405.736 240.444 405.946 240.654C406.155 240.864 406.273 241.149 406.273 241.446C406.274 241.743 406.156 242.028 405.947 242.238L401.757 246.44C401.663 246.534 401.611 246.661 401.611 246.793C401.611 246.926 401.663 247.053 401.757 247.146L405.947 251.349C406.157 251.559 406.274 251.844 406.274 252.141C406.274 252.438 406.157 252.723 405.948 252.934Z" fill="#E6E6E6"/>
<path d="M639.354 438.77H309.527C309.297 438.77 309.077 438.678 308.915 438.515C308.752 438.352 308.661 438.132 308.661 437.901C308.661 437.671 308.752 437.45 308.915 437.288C309.077 437.125 309.297 437.033 309.527 437.033H639.354C639.584 437.033 639.804 437.125 639.966 437.288C640.129 437.45 640.22 437.671 640.22 437.901C640.22 438.132 640.129 438.352 639.966 438.515C639.804 438.678 639.584 438.77 639.354 438.77Z" fill="#3F3D56"/>
<path d="M356.483 201.872C357.572 202.532 358.792 202.945 360.057 203.081C361.323 203.218 362.603 203.074 363.807 202.661C365.011 202.247 366.11 201.574 367.026 200.689C367.943 199.804 368.655 198.728 369.112 197.537L400.03 198.569L391.631 184.824L363.558 185.952C361.512 185.315 359.304 185.452 357.352 186.339C355.4 187.225 353.84 188.798 352.968 190.761C352.096 192.723 351.972 194.938 352.62 196.986C353.268 199.034 354.642 200.773 356.483 201.872Z" fill="#FFB8B8"/>
<path d="M530.81 269.023C531.649 268.064 532.268 266.932 532.623 265.706C532.979 264.481 533.062 263.192 532.867 261.931C532.672 260.67 532.204 259.468 531.495 258.408C530.786 257.348 529.854 256.457 528.765 255.797L535.193 225.455L520.226 231.339L516.417 259.25C515.433 261.159 515.181 263.363 515.71 265.445C516.238 267.527 517.51 269.342 519.284 270.547C521.058 271.752 523.212 272.262 525.336 271.981C527.46 271.7 529.408 270.648 530.81 269.023Z" fill="#FFB8B8"/>
<path d="M458.383 427.154L447.77 427.153L442.721 386.105L458.385 386.106L458.383 427.154Z" fill="#FFB8B8"/>
<path d="M461.089 437.469L426.868 437.467V437.033C426.868 435.28 427.213 433.543 427.882 431.922C428.551 430.302 429.533 428.83 430.769 427.589C432.006 426.349 433.475 425.365 435.091 424.694C436.707 424.023 438.439 423.678 440.188 423.678L461.09 423.679L461.089 437.469Z" fill="#2F2E41"/>
<path d="M510.324 427.154L499.711 427.153L494.662 386.105L510.326 386.106L510.324 427.154Z" fill="#FFB8B8"/>
<path d="M513.028 437.469L478.807 437.468V437.034C478.807 435.28 479.151 433.543 479.821 431.923C480.49 430.302 481.471 428.83 482.708 427.59C483.945 426.349 485.413 425.366 487.029 424.695C488.645 424.023 490.377 423.678 492.127 423.678L513.029 423.679L513.028 437.469Z" fill="#2F2E41"/>
<path d="M459.487 405.72L444.463 405.117C443.438 405.073 442.472 404.626 441.773 403.874C441.073 403.121 440.697 402.123 440.725 401.095L444.958 261.881L445.234 261.781C471.565 252.23 493.348 252.953 511.828 263.986L512.035 264.11L514.571 399.698C514.58 400.217 514.487 400.733 514.296 401.215C514.104 401.698 513.819 402.137 513.456 402.507C513.094 402.878 512.661 403.172 512.183 403.373C511.706 403.574 511.193 403.678 510.676 403.678H498.007C497.105 403.676 496.231 403.361 495.534 402.786C494.837 402.212 494.36 401.413 494.184 400.525L476.927 312.499C476.867 312.195 476.701 311.922 476.459 311.729C476.217 311.537 475.914 311.437 475.605 311.449C475.296 311.46 475.001 311.582 474.774 311.792C474.546 312.002 474.401 312.286 474.364 312.594L463.51 402.287C463.39 403.233 462.932 404.103 462.22 404.735C461.508 405.367 460.591 405.718 459.641 405.722C459.59 405.722 459.538 405.721 459.487 405.72Z" fill="#2F2E41"/>
<path d="M474.104 139.796C485.847 139.796 495.366 130.25 495.366 118.476C495.366 106.701 485.847 97.1562 474.104 97.1562C462.361 97.1562 452.842 106.701 452.842 118.476C452.842 130.25 462.361 139.796 474.104 139.796Z" fill="#FFB8B8"/>
<path d="M374.145 196.834C373.908 196.075 373.907 195.262 374.143 194.503L376.346 187.426C376.587 186.66 377.056 185.987 377.69 185.497C378.324 185.007 379.093 184.725 379.893 184.687L407.788 183.451L453.045 160.189C454.616 159.686 456.271 159.498 457.915 159.636C459.558 159.775 461.159 160.237 462.624 160.996C464.09 161.755 465.391 162.797 466.455 164.061C467.519 165.325 468.323 166.787 468.823 168.363C469.323 169.939 469.508 171.599 469.368 173.247C469.227 174.894 468.764 176.498 468.005 177.967C467.246 179.435 466.206 180.739 464.944 181.804C463.682 182.869 462.222 183.674 460.65 184.173L432.915 200.303C424.498 205.2 414.593 206.865 405.044 204.987L377.113 199.5C376.576 199.395 376.067 199.177 375.62 198.861C375.172 198.545 374.796 198.138 374.516 197.667C374.36 197.405 374.235 197.125 374.145 196.834Z" fill="#CCCCCC"/>
<path d="M529.9 249.378C529.154 249.648 528.344 249.683 527.578 249.479L520.432 247.574C519.659 247.366 518.968 246.924 518.453 246.31C517.938 245.695 517.623 244.937 517.552 244.137L515.131 216.245L490.025 171.898C489.457 170.346 489.199 168.696 489.267 167.044C489.336 165.391 489.728 163.769 490.422 162.268C491.116 160.768 492.098 159.42 493.312 158.3C494.526 157.181 495.948 156.313 497.498 155.745C499.047 155.177 500.692 154.921 502.34 154.991C503.988 155.062 505.606 155.457 507.101 156.155C508.596 156.853 509.94 157.839 511.055 159.058C512.169 160.277 513.034 161.704 513.598 163.258L530.852 190.355C536.09 198.578 538.171 208.43 536.707 218.076L532.43 246.291C532.348 246.834 532.152 247.352 531.857 247.814C531.561 248.276 531.172 248.67 530.714 248.971C530.46 249.139 530.187 249.275 529.9 249.378Z" fill="#CCCCCC"/>
<path d="M450.847 156.337C454.499 152.321 459.003 149.179 464.028 147.142C469.053 145.105 474.47 144.225 479.879 144.567C480.235 144.589 480.589 144.614 480.942 144.642C486.068 145.048 491.05 146.548 495.553 149.039C500.055 151.531 503.975 154.958 507.051 159.091C510.178 163.282 512.376 168.094 513.5 173.205C514.623 178.317 514.645 183.609 513.565 188.73C509.442 208.299 510.486 228.608 516.592 247.648L522.296 265.407C522.479 265.976 522.529 266.58 522.443 267.171C522.356 267.763 522.135 268.327 521.797 268.819C521.459 269.311 521.013 269.72 520.493 270.012C519.972 270.304 519.392 270.472 518.797 270.504L489.636 272.076L482.174 259.152V272.479L446.732 274.389C446.661 274.393 446.591 274.395 446.521 274.395C445.983 274.395 445.451 274.283 444.959 274.067C444.466 273.85 444.024 273.534 443.659 273.137C443.294 272.741 443.016 272.273 442.84 271.763C442.665 271.254 442.596 270.713 442.639 270.175L446.645 220.366L441.621 186.537C440.807 181.132 441.214 175.612 442.811 170.386C444.408 165.159 447.154 160.358 450.847 156.337Z" fill="#CCCCCC"/>
<path d="M488.882 138.829C486.913 139.965 479.132 140.718 478.578 138.509L478.566 138.461C478.18 136.842 478.5 135.153 478.611 133.493C478.722 131.833 478.56 130.009 477.432 128.789C475.33 126.513 471.591 127.72 468.552 127.144C466.771 126.746 465.197 125.711 464.123 124.232C463.049 122.754 462.549 120.934 462.717 119.112C462.76 118.767 462.828 118.422 462.904 118.077C463.094 117.202 463.079 116.295 462.861 115.427C462.643 114.559 462.227 113.754 461.646 113.074C461.065 112.394 460.335 111.859 459.512 111.51C458.69 111.161 457.799 111.007 456.908 111.062C453.836 111.238 450.521 112.171 447.979 109.89C446.014 108.126 445.535 103.534 446.398 101.035C447.849 96.8352 457.144 94.6365 461.203 93.4279C466.222 91.9736 471.502 91.6592 476.658 92.5075C481.814 93.3558 486.716 95.3455 491.009 98.3318C493.572 100.144 495.966 102.42 497.059 105.368C498.152 108.316 497.625 112.035 495.161 113.98C497.071 116.008 498.415 118.503 499.06 121.216C499.706 123.928 499.628 126.764 498.837 129.437C497.62 133.369 491.812 137.138 488.882 138.829Z" fill="#2F2E41"/>
<path d="M195.432 139.923H59.2926C57.5381 139.921 55.8561 139.22 54.6161 137.976C53.3761 136.731 52.6797 135.043 52.6797 133.284C52.6797 131.525 53.3761 129.838 54.6161 128.593C55.8561 127.348 57.5381 126.648 59.2926 126.646H195.432C197.186 126.648 198.868 127.348 200.108 128.593C201.348 129.838 202.045 131.525 202.045 133.284C202.045 135.043 201.348 136.731 200.108 137.976C198.868 139.22 197.186 139.921 195.432 139.923Z" fill="#FFCC29"/>
<path d="M279.482 145.583H45.7464C45.5168 145.583 45.2966 145.492 45.1342 145.329C44.9719 145.166 44.8807 144.945 44.8807 144.715C44.8807 144.485 44.9719 144.264 45.1342 144.101C45.2966 143.939 45.5168 143.847 45.7464 143.847H279.482C279.712 143.847 279.932 143.939 280.094 144.101C280.257 144.264 280.348 144.485 280.348 144.715C280.348 144.945 280.257 145.166 280.094 145.329C279.932 145.492 279.712 145.583 279.482 145.583Z" fill="#3F3D56"/>
<path d="M195.432 195.519H59.2934C57.5375 195.519 55.8536 194.82 54.612 193.575C53.3704 192.33 52.6729 190.641 52.6729 188.881C52.6729 187.12 53.3704 185.432 54.612 184.187C55.8536 182.942 57.5375 182.242 59.2934 182.242H195.432C197.187 182.244 198.869 182.945 200.109 184.189C201.349 185.434 202.045 187.122 202.045 188.881C202.045 190.64 201.349 192.328 200.109 193.572C198.869 194.817 197.187 195.517 195.432 195.519Z" fill="#FFCC29"/>
<path d="M279.482 201.181H45.7464C45.5168 201.181 45.2966 201.089 45.1342 200.927C44.9719 200.764 44.8807 200.543 44.8807 200.313C44.8807 200.083 44.9719 199.862 45.1342 199.699C45.2966 199.536 45.5168 199.445 45.7464 199.445H279.482C279.712 199.445 279.932 199.536 280.094 199.699C280.257 199.862 280.348 200.083 280.348 200.313C280.348 200.543 280.257 200.764 280.094 200.927C279.932 201.089 279.712 201.181 279.482 201.181Z" fill="#3F3D56"/>
<path d="M195.432 251.116H59.2934C57.5375 251.116 55.8536 250.416 54.612 249.171C53.3704 247.926 52.6729 246.238 52.6729 244.477C52.6729 242.717 53.3704 241.028 54.612 239.783C55.8536 238.538 57.5375 237.839 59.2934 237.839H195.432C197.187 237.841 198.869 238.541 200.109 239.786C201.349 241.031 202.045 242.718 202.045 244.477C202.045 246.237 201.349 247.924 200.109 249.169C198.869 250.413 197.187 251.114 195.432 251.116Z" fill="#F2F2F2"/>
<path d="M279.482 256.777H45.7464C45.5168 256.777 45.2966 256.685 45.1342 256.522C44.9719 256.36 44.8807 256.139 44.8807 255.909C44.8807 255.678 44.9719 255.458 45.1342 255.295C45.2966 255.132 45.5168 255.041 45.7464 255.041H279.482C279.712 255.041 279.932 255.132 280.094 255.295C280.257 255.458 280.348 255.678 280.348 255.909C280.348 256.139 280.257 256.36 280.094 256.522C279.932 256.685 279.712 256.777 279.482 256.777Z" fill="#3F3D56"/>
</g>
<defs>
<clipPath id="clip0_104_80">
<rect width="639.24" height="438.052" fill="white" transform="translate(0.979492 0.974121)"/>
</clipPath>
</defs>
</svg>
