
            <svg width="770" height="568" viewBox="0 0 770 568" fill="none" xmlns="http://www.w3.org/2000/svg">
                <rect x="1.04797" y="1.04797" width="903.351" height="565.904" stroke="#FFCC29" stroke-width="2.09594"/>
                <g clip-path="url(#clip0_104_25)">
                <path d="M271.812 528.955C277.054 524.531 280.238 517.542 279.403 510.738C278.568 503.934 273.396 497.679 266.687 496.234C259.979 494.789 252.331 498.789 250.293 505.335C249.172 492.715 247.88 479.566 241.162 468.819C235.08 459.088 224.545 452.125 213.128 450.879C201.71 449.633 189.689 454.338 182.568 463.339C175.448 472.341 173.704 485.426 178.691 495.76C182.365 503.373 189.134 509.038 196.225 513.648C218.85 528.352 246.917 533.321 273.622 529.395L271.812 528.955Z" fill="#F2F2F2"/>
                <path d="M193.859 454.599C203.28 462.263 211.922 470.835 219.662 480.191C227.402 489.537 234.217 499.611 240.01 510.271C243.248 516.251 246.157 522.403 248.724 528.7C249.247 529.981 247.165 530.539 246.647 529.272C242.101 518.171 236.477 507.541 229.855 497.536C223.265 487.567 215.722 478.26 207.333 469.746C202.588 464.933 197.581 460.384 192.336 456.12C191.261 455.245 192.793 453.731 193.859 454.599Z" fill="white"/>
                <path d="M647.083 258.943H575.375C574.293 258.942 573.256 258.512 572.491 257.748C571.726 256.984 571.295 255.948 571.294 254.867V246.274C571.295 245.193 571.726 244.157 572.491 243.393C573.256 242.629 574.293 242.199 575.375 242.198H647.083C648.165 242.199 649.202 242.629 649.967 243.393C650.732 244.157 651.163 245.193 651.164 246.274V254.867C651.163 255.948 650.732 256.984 649.967 257.748C649.202 258.512 648.165 258.942 647.083 258.943Z" fill="#FFCC29"/>
                <path d="M637.408 245.803L606.848 218.281C606.19 217.687 605.344 217.344 604.457 217.31C603.571 217.276 602.701 217.553 601.999 218.095L535.12 240.151C534.166 240.467 533.377 241.147 532.925 242.043C532.473 242.94 532.396 243.978 532.71 244.931L535.407 253.092C535.562 253.564 535.81 254.001 536.134 254.378C536.459 254.755 536.855 255.064 537.3 255.288C537.744 255.511 538.229 255.645 538.726 255.681C539.222 255.718 539.721 255.655 540.193 255.499L601.543 235.266L626.572 257.807C627.265 258.435 628.168 258.782 629.105 258.781C629.171 258.781 629.238 258.779 629.305 258.775C629.802 258.751 630.29 258.629 630.739 258.415C631.189 258.201 631.591 257.9 631.924 257.53L637.685 251.148C638.357 250.402 638.705 249.42 638.653 248.418C638.601 247.416 638.153 246.476 637.408 245.803Z" fill="#FFCC29"/>
                <path d="M299.009 451.608C298.081 451.609 297.192 451.977 296.536 452.632C295.881 453.287 295.512 454.175 295.511 455.101V526.726C295.512 527.652 295.881 528.54 296.536 529.195C297.192 529.85 298.081 530.218 299.009 530.219H307.612C308.54 530.218 309.429 529.85 310.084 529.195C310.74 528.54 311.109 527.652 311.11 526.726V455.101C311.109 454.175 310.74 453.287 310.084 452.632C309.429 451.977 308.54 451.609 307.612 451.608H299.009Z" fill="#FFCC29"/>
                <path d="M325.795 530.802H317.191C316.109 530.801 315.072 530.371 314.307 529.607C313.542 528.843 313.112 527.807 313.111 526.726V455.102C313.112 454.021 313.542 452.985 314.307 452.221C315.072 451.457 316.109 451.027 317.191 451.026H325.795C326.877 451.027 327.914 451.457 328.679 452.221C329.444 452.985 329.874 454.021 329.875 455.102V526.726C329.874 527.807 329.444 528.843 328.679 529.607C327.914 530.371 326.877 530.801 325.795 530.802Z" fill="#FFCC29"/>
                <path d="M339.882 460.654C339.882 460.654 343.132 489.85 310.316 488.859C277.5 487.867 290.267 459.179 290.267 459.179C290.267 459.179 297.125 453.796 314.461 459.002C331.796 464.209 339.882 460.654 339.882 460.654Z" fill="#CCCCCC"/>
                <path d="M325.78 410.967C323.977 410.97 322.222 410.393 320.774 409.321C319.326 408.248 318.262 406.738 317.742 405.015C317.221 403.291 317.27 401.446 317.883 399.752C318.495 398.059 319.638 396.608 321.141 395.615L377.351 358.456C377.798 358.16 378.299 357.956 378.825 357.854C379.351 357.752 379.892 357.754 380.417 357.861C380.942 357.967 381.441 358.176 381.886 358.476C382.33 358.775 382.711 359.159 383.006 359.605L387.755 366.771C388.351 367.673 388.564 368.774 388.349 369.833C388.133 370.892 387.506 371.822 386.604 372.42L330.394 409.579C329.026 410.485 327.421 410.968 325.78 410.967Z" fill="#FFCC29"/>
                <path d="M315.573 376.569C331.992 376.569 345.303 363.274 345.303 346.874C345.303 330.474 331.992 317.18 315.573 317.18C299.154 317.18 285.844 330.474 285.844 346.874C285.844 363.274 299.154 376.569 315.573 376.569Z" fill="#FFCC29"/>
                <path d="M315.595 359.34C317.522 359.286 319.921 359.22 321.768 357.871C322.319 357.453 322.771 356.92 323.093 356.31C323.415 355.699 323.6 355.025 323.634 354.335C323.667 353.845 323.587 353.354 323.399 352.9C323.21 352.447 322.92 352.042 322.549 351.719C321.584 350.905 320.175 350.714 318.656 351.16L320.23 339.674L319.075 339.516L317.225 353.019L318.19 352.577C319.308 352.064 320.843 351.804 321.797 352.609C322.031 352.819 322.213 353.081 322.33 353.373C322.447 353.666 322.494 353.981 322.469 354.295C322.44 354.808 322.302 355.309 322.062 355.764C321.823 356.219 321.488 356.617 321.081 356.931C319.643 357.98 317.731 358.115 315.563 358.176L315.595 359.34Z" fill="#2F2E41"/>
                <path d="M332.221 340.665H325.942V341.83H332.221V340.665Z" fill="#2F2E41"/>
                <path d="M312.401 340.665H306.122V341.83H312.401V340.665Z" fill="#2F2E41"/>
                <path d="M285.543 466.806C285.543 466.806 282.976 379.635 318.912 385.617C354.848 391.6 339.875 475.779 339.875 475.779C339.875 475.779 332.175 491.163 313.351 474.07C294.527 456.978 285.543 466.806 285.543 466.806Z" fill="#2F2E41"/>
                <path d="M298.807 321.793C304.591 317.87 311.892 320.535 317.513 323.335C322.972 326.054 329.123 329.513 335.299 326.894C337.711 325.872 339.672 323.871 340.013 321.194C340.419 318.005 338.488 315.02 336.341 312.852C334.008 310.622 331.289 308.832 328.317 307.57C325.403 306.261 322.334 305.328 319.184 304.796C312.943 303.719 306.536 304.147 300.494 306.044C294.453 307.941 288.953 311.253 284.452 315.702C280.098 320.138 276.734 325.444 274.581 331.272C272.429 337.1 271.536 343.317 271.963 349.515C272.454 356.12 274.566 362.856 278.804 368.042C282.779 372.907 288.733 376.328 295.087 376.613C296.644 376.686 298.204 376.559 299.728 376.237C300.826 376.003 301.295 377.686 300.193 377.921C293.575 379.33 286.72 377.236 281.471 373.113C275.946 368.772 272.556 362.2 271.069 355.429C268.225 342.471 271.788 328.526 279.954 318.152C283.986 312.985 289.21 308.868 295.179 306.152C301.344 303.403 308.078 302.169 314.819 302.553C321.541 302.89 328.062 304.954 333.752 308.545C338.841 311.83 344.577 318.794 340.426 324.956C338.874 327.26 336.297 328.663 333.622 329.24C330.553 329.837 327.377 329.56 324.456 328.442C317.807 326.097 311.658 320.857 304.215 321.651C302.593 321.819 301.038 322.386 299.689 323.301C298.756 323.935 297.88 322.422 298.807 321.793Z" fill="#2F2E41"/>
                <path d="M552.803 186.547C551.457 185.683 550.397 184.44 549.758 182.974C549.119 181.509 548.93 179.887 549.214 178.314C549.497 176.741 550.242 175.287 551.353 174.137C552.464 172.987 553.892 172.191 555.455 171.851L621.319 157.53C622.301 157.318 623.327 157.503 624.172 158.045C625.018 158.588 625.613 159.443 625.828 160.423L627.658 168.82C627.763 169.306 627.773 169.808 627.684 170.297C627.596 170.786 627.412 171.253 627.143 171.671C626.874 172.089 626.525 172.45 626.117 172.734C625.708 173.017 625.247 173.218 624.761 173.323L558.897 187.644C558.612 187.706 558.323 187.753 558.033 187.785C556.199 187.984 554.352 187.547 552.803 186.547Z" fill="#FFCC29"/>
                <path d="M547.412 181.801C547.372 181.645 547.337 181.487 547.307 181.328C546.766 178.479 547.755 175.479 550.092 172.881C552.631 170.183 555.946 168.338 559.579 167.602L589.607 161.041C590.101 160.932 590.613 160.925 591.111 161.017C591.608 161.11 592.083 161.301 592.505 161.58C592.928 161.859 593.29 162.22 593.571 162.641C593.851 163.062 594.045 163.535 594.139 164.032L596.759 177.816C596.948 178.784 596.749 179.789 596.204 180.612C595.659 181.436 594.813 182.013 593.846 182.219L563.629 188.821C562.266 189.122 560.876 189.275 559.48 189.277C553.528 189.277 548.571 186.381 547.412 181.801Z" fill="#2F2E41"/>
                <path d="M552.666 150.958C569.085 150.958 582.396 137.664 582.396 121.264C582.396 104.864 569.085 91.5691 552.666 91.5691C536.247 91.5691 522.937 104.864 522.937 121.264C522.937 137.664 536.247 150.958 552.666 150.958Z" fill="#FFCC29"/>
                <path d="M577.754 131.983C579.681 131.929 582.08 131.862 583.928 130.514C584.478 130.096 584.93 129.563 585.252 128.952C585.574 128.342 585.759 127.668 585.793 126.978C585.826 126.488 585.746 125.997 585.558 125.543C585.37 125.089 585.079 124.685 584.709 124.362C583.743 123.548 582.334 123.357 580.816 123.802L582.389 112.317L581.234 112.159L579.384 125.661L580.349 125.219C581.467 124.707 583.002 124.446 583.956 125.251C584.19 125.462 584.373 125.724 584.489 126.016C584.606 126.308 584.653 126.624 584.628 126.937C584.6 127.451 584.461 127.952 584.221 128.407C583.982 128.862 583.647 129.26 583.24 129.574C581.802 130.623 579.89 130.758 577.722 130.819L577.754 131.983Z" fill="#2F2E41"/>
                <path d="M574.562 113.307H568.282V114.472H574.562V113.307Z" fill="#2F2E41"/>
                <path d="M550.588 91.4814C550.369 87.9712 549.398 84.5489 547.739 81.4463C546.081 78.3437 543.775 75.6332 540.977 73.4984C538.086 71.36 534.75 69.9 531.216 69.2268C527.682 68.5536 524.042 68.6846 520.566 69.6101C517.112 70.5065 513.907 72.1744 511.193 74.4879C508.478 76.8015 506.325 79.7003 504.895 82.966C503.456 86.2074 502.738 89.722 502.791 93.2674C502.949 97.1228 503.908 100.903 505.607 104.369C507.36 108.184 509.571 111.763 511.491 115.493C513.382 119.17 515.014 122.975 516.374 126.879C519.142 134.835 520.775 143.141 521.225 151.552C521.939 164.81 520.669 184.166 505.684 189.254C501.874 190.548 497.763 190.789 493.768 190.778C489.56 190.829 485.363 190.338 481.281 189.317C474.207 187.43 467.492 183 464.478 176.117C463.783 174.527 463.317 172.847 463.094 171.127C463.032 170.656 463.541 170.258 463.969 170.254C464.199 170.259 464.418 170.353 464.581 170.516C464.744 170.678 464.838 170.897 464.843 171.127C465.819 178.462 471.938 184.087 478.582 186.616C482.464 188.022 486.543 188.81 490.67 188.952C494.777 189.159 499.042 189.127 503.064 188.183C506.644 187.409 509.902 185.559 512.399 182.883C514.625 180.323 516.286 177.322 517.272 174.078C519.637 166.867 519.885 158.938 519.469 151.422C518.999 143.039 517.331 134.767 514.516 126.855C513.094 122.861 511.378 118.977 509.384 115.235C507.435 111.575 505.272 108.018 503.63 104.203C502.028 100.696 501.147 96.904 501.039 93.0509C501.027 89.4924 501.736 85.9682 503.124 82.6909C504.488 79.4007 506.534 76.4359 509.128 73.9913C511.721 71.5468 514.802 69.6777 518.169 68.5069C521.595 67.3157 525.233 66.8532 528.848 67.149C532.464 67.4448 535.978 68.4924 539.164 70.2246C542.195 71.9649 544.851 74.288 546.977 77.0596C549.104 79.8312 550.66 82.9963 551.554 86.372C551.989 88.044 552.251 89.756 552.336 91.4814C552.394 92.6049 550.645 92.6017 550.588 91.4814Z" fill="#2F2E41"/>
                <path d="M544.772 92.0947C544.295 88.855 542.67 85.8938 540.192 83.7495C537.559 81.5446 534.183 80.4253 530.752 80.6196C529.627 80.6758 529.63 78.9289 530.752 78.8729C534.481 78.7049 538.141 79.9119 541.037 82.2641C543.933 84.6164 545.863 87.9498 546.459 91.6304C546.627 92.73 544.942 93.2041 544.772 92.0947Z" fill="#2F2E41"/>
                <path d="M541.1 92.1958C540.834 91.3893 540.899 90.5101 541.281 89.7516C541.664 88.9931 542.332 88.4173 543.14 88.1511L551.443 85.4127C552.25 85.1464 553.13 85.2114 553.89 85.5934C554.649 85.9753 555.226 86.643 555.492 87.4494C555.759 88.2559 555.694 89.1351 555.311 89.8936C554.929 90.6521 554.261 91.2279 553.453 91.4942L545.15 94.2325C544.75 94.3645 544.328 94.4166 543.908 94.3856C543.488 94.3547 543.079 94.2414 542.703 94.0523C542.327 93.8632 541.992 93.6019 541.717 93.2833C541.442 92.9648 541.232 92.5952 541.1 92.1958Z" fill="#2F2E41"/>
                <path d="M605.938 132.544C605.402 132.657 604.908 132.919 604.514 133.3C604.119 133.68 603.84 134.164 603.709 134.696C603.577 135.227 603.598 135.785 603.769 136.305C603.94 136.826 604.255 137.287 604.677 137.637L617.508 148.286C617.695 148.444 617.85 148.638 617.964 148.855C618.07 149.075 618.129 149.314 618.139 149.558L618.94 169.087C618.954 169.726 619.183 170.341 619.59 170.834C619.997 171.328 620.558 171.67 621.184 171.806L621.206 171.811C621.824 171.962 622.474 171.902 623.054 171.641C623.633 171.38 624.109 170.932 624.404 170.37L629.033 161.94C629.188 161.662 629.416 161.432 629.692 161.274C629.968 161.115 630.282 161.035 630.6 161.042C630.834 161.043 631.065 161.092 631.279 161.187C631.493 161.282 631.685 161.42 631.843 161.593L654.054 185.264C654.374 185.608 654.773 185.868 655.217 186.023C655.661 186.178 656.136 186.223 656.601 186.154C657.065 186.085 657.505 185.906 657.885 185.631C658.264 185.357 658.573 184.996 658.783 184.577L691.35 119.499C691.596 119.009 691.699 118.459 691.646 117.914C691.594 117.368 691.388 116.848 691.053 116.414C690.718 115.98 690.267 115.649 689.752 115.459C689.237 115.27 688.679 115.229 688.141 115.342L687.087 115.562L605.938 132.544ZM605.418 136.743C605.166 136.532 604.977 136.255 604.875 135.942C604.773 135.63 604.761 135.295 604.841 134.976C604.92 134.657 605.088 134.367 605.325 134.138C605.562 133.91 605.858 133.753 606.181 133.686L687.304 116.71L688.384 116.484C688.705 116.418 689.039 116.443 689.347 116.557C689.655 116.671 689.925 116.87 690.125 117.129C690.326 117.389 690.45 117.7 690.482 118.026C690.514 118.353 690.454 118.682 690.309 118.976L657.743 184.054C657.616 184.306 657.431 184.523 657.203 184.687C656.975 184.852 656.71 184.959 656.431 184.999C656.153 185.04 655.868 185.012 655.603 184.92C655.337 184.827 655.097 184.671 654.905 184.466L632.695 160.795C632.478 160.558 632.221 160.361 631.937 160.211L688.372 119.318C688.594 119.16 688.754 118.93 688.824 118.668C688.894 118.405 688.87 118.126 688.756 117.879C688.642 117.632 688.445 117.433 688.2 117.315C687.954 117.198 687.675 117.17 687.411 117.236C687.347 117.252 687.283 117.273 687.223 117.301L618.7 147.852C618.568 147.682 618.417 147.528 618.249 147.391L605.418 136.743Z" fill="#CCCCCC"/>
                <path d="M605.938 132.544C605.402 132.657 604.908 132.919 604.514 133.3C604.119 133.68 603.84 134.164 603.709 134.696C603.577 135.227 603.598 135.785 603.769 136.305C603.94 136.826 604.255 137.287 604.677 137.637L617.508 148.286C617.695 148.444 617.85 148.638 617.964 148.855C618.07 149.075 618.129 149.314 618.139 149.558L618.94 169.087C618.954 169.726 619.183 170.341 619.59 170.834C619.997 171.328 620.558 171.67 621.184 171.806L621.206 171.811C621.824 171.962 622.474 171.902 623.054 171.641C623.633 171.38 624.109 170.932 624.404 170.37L629.033 161.94C629.188 161.662 629.416 161.432 629.692 161.274C629.968 161.115 630.282 161.035 630.6 161.042C630.834 161.043 631.065 161.092 631.279 161.187C631.493 161.282 631.685 161.42 631.843 161.593L654.054 185.264C654.374 185.608 654.773 185.868 655.217 186.023C655.661 186.178 656.136 186.223 656.601 186.154C657.065 186.085 657.505 185.906 657.885 185.631C658.264 185.357 658.573 184.996 658.783 184.577L691.35 119.499C691.596 119.009 691.699 118.459 691.646 117.914C691.594 117.368 691.388 116.848 691.053 116.414C690.718 115.98 690.267 115.649 689.752 115.459C689.237 115.27 688.679 115.229 688.141 115.342L687.087 115.562L605.938 132.544ZM605.418 136.743C605.166 136.532 604.977 136.255 604.875 135.942C604.773 135.63 604.761 135.295 604.841 134.976C604.92 134.657 605.088 134.367 605.325 134.138C605.562 133.91 605.858 133.753 606.181 133.686L687.304 116.71L688.384 116.484C688.705 116.418 689.039 116.443 689.347 116.557C689.655 116.671 689.925 116.87 690.125 117.129C690.326 117.389 690.45 117.7 690.482 118.026C690.514 118.353 690.454 118.682 690.309 118.976L657.743 184.054C657.616 184.306 657.431 184.523 657.203 184.687C656.975 184.852 656.71 184.959 656.431 184.999C656.153 185.04 655.868 185.012 655.603 184.92C655.337 184.827 655.097 184.671 654.905 184.466L632.695 160.795C632.478 160.558 632.221 160.361 631.937 160.211C631.53 159.993 631.076 159.878 630.615 159.875C630.55 159.872 630.483 159.875 630.417 159.877L630.411 159.876C629.916 159.902 629.436 160.053 629.016 160.316C628.596 160.579 628.251 160.945 628.012 161.379L623.383 169.815C623.206 170.154 622.92 170.423 622.571 170.579C622.222 170.735 621.83 170.768 621.459 170.674L621.448 170.672C621.072 170.593 620.734 170.388 620.489 170.092C620.245 169.795 620.109 169.424 620.104 169.041L619.303 149.512C619.297 149.305 619.267 149.1 619.215 148.901L619.216 148.895C619.167 148.703 619.097 148.517 619.008 148.34C618.923 148.167 618.82 148.003 618.7 147.852C618.568 147.682 618.417 147.528 618.249 147.391L605.418 136.743Z" fill="#3F3D56"/>
                <path d="M618.7 147.852L687.222 117.301C687.283 117.273 687.346 117.252 687.41 117.236C687.674 117.17 687.953 117.198 688.199 117.315C688.444 117.433 688.641 117.632 688.755 117.879C688.869 118.126 688.893 118.405 688.823 118.668C688.753 118.93 688.593 119.16 688.371 119.318L631.936 160.211L630.941 160.934L630.259 159.991L630.41 159.876L630.416 159.877L687.684 118.373L619.215 148.895L619.214 148.901L618.916 149.03L618.44 147.966L618.7 147.852Z" fill="#3F3D56"/>
                <path d="M533.089 240.557C532.239 240.558 531.424 240.895 530.823 241.496C530.222 242.096 529.884 242.91 529.883 243.759V255.404C529.884 256.253 530.222 257.067 530.823 257.667C531.424 258.268 532.239 258.605 533.089 258.606H570.397C571.247 258.605 572.062 258.268 572.663 257.667C573.264 257.067 573.602 256.253 573.603 255.404V243.759C573.602 242.91 573.264 242.096 572.663 241.496C572.062 240.895 571.247 240.558 570.397 240.557H533.089Z" fill="#2F2E41"/>
                <path d="M528.69 181.487C526.909 186.644 526.576 192.19 527.729 197.522C530.694 212.04 529.591 229.203 526.676 247.543C526.676 249.473 528.021 251.037 529.681 251.037H575.26C576.92 251.037 578.265 249.473 578.265 247.543V193.103C578.265 177.016 567.316 163.851 553.623 163.152C553.242 163.129 552.856 163.117 552.471 163.117C541.787 163.117 532.601 170.704 528.69 181.487Z" fill="#2F2E41"/>
                <path d="M543.206 252.144V184.816C543.206 182.673 544.059 180.617 545.576 179.102C547.093 177.586 549.151 176.735 551.297 176.735C553.443 176.735 555.501 177.586 557.018 179.102C558.536 180.617 559.388 182.673 559.388 184.816V252.144C559.387 253.147 558.988 254.109 558.277 254.819C557.567 255.528 556.604 255.927 555.599 255.928H546.995C545.991 255.927 545.028 255.528 544.317 254.819C543.607 254.109 543.207 253.147 543.206 252.144Z" fill="#FFCC29"/>
                <path d="M557.047 203.92L544.817 203.383C543.813 203.337 542.869 202.896 542.19 202.156C541.512 201.416 541.155 200.438 541.198 199.435L542.057 179.949C542.111 178.648 542.422 177.371 542.971 176.19C543.521 175.01 544.297 173.949 545.258 173.069C546.218 172.189 547.342 171.506 548.567 171.061C549.792 170.615 551.092 170.415 552.394 170.473C553.696 170.53 554.974 170.843 556.155 171.394C557.335 171.946 558.396 172.724 559.275 173.685C560.154 174.646 560.834 175.771 561.278 176.995C561.721 178.22 561.918 179.519 561.857 180.819L560.999 200.306C560.956 201.279 560.539 202.198 559.834 202.872C559.13 203.546 558.193 203.923 557.218 203.924C557.161 203.924 557.104 203.923 557.047 203.92Z" fill="#2F2E41"/>
                <path d="M578.264 216.393C579.713 216.393 580.887 212.613 580.887 207.95C580.887 203.287 579.713 199.508 578.264 199.508C576.815 199.508 575.641 203.287 575.641 207.95C575.641 212.613 576.815 216.393 578.264 216.393Z" fill="#2F2E41"/>
                <path d="M434.508 313.046C442.556 313.046 449.081 306.529 449.081 298.49C449.081 290.451 442.556 283.934 434.508 283.934C426.459 283.934 419.935 290.451 419.935 298.49C419.935 306.529 426.459 313.046 434.508 313.046Z" fill="#CCCCCC"/>
                <path d="M578.625 313.046H466.703C465.466 313.046 464.28 312.555 463.405 311.682C462.531 310.808 462.039 309.623 462.039 308.388C462.039 307.153 462.531 305.968 463.405 305.094C464.28 304.221 465.466 303.73 466.703 303.73H578.625C579.862 303.73 581.048 304.221 581.923 305.094C582.797 305.968 583.289 307.153 583.289 308.388C583.289 309.623 582.797 310.808 581.923 311.682C581.048 312.555 579.862 313.046 578.625 313.046Z" fill="#CCCCCC"/>
                <path d="M548.313 293.25H466.703C465.466 293.25 464.28 292.759 463.405 291.885C462.531 291.012 462.039 289.827 462.039 288.592C462.039 287.356 462.531 286.172 463.405 285.298C464.28 284.425 465.466 283.934 466.703 283.934H548.313C549.55 283.934 550.736 284.425 551.61 285.298C552.485 286.172 552.976 287.356 552.976 288.592C552.976 289.827 552.485 291.012 551.61 291.885C550.736 292.759 549.55 293.25 548.313 293.25Z" fill="#CCCCCC"/>
                <path d="M434.508 368.36C442.556 368.36 449.081 361.843 449.081 353.804C449.081 345.765 442.556 339.248 434.508 339.248C426.459 339.248 419.935 345.765 419.935 353.804C419.935 361.843 426.459 368.36 434.508 368.36Z" fill="#CCCCCC"/>
                <path d="M578.625 368.36H466.703C465.466 368.36 464.28 367.869 463.405 366.995C462.531 366.122 462.039 364.937 462.039 363.702C462.039 362.466 462.531 361.282 463.405 360.408C464.28 359.534 465.466 359.044 466.703 359.044H578.625C579.862 359.044 581.048 359.534 581.923 360.408C582.797 361.282 583.289 362.466 583.289 363.702C583.289 364.937 582.797 366.122 581.923 366.995C581.048 367.869 579.862 368.36 578.625 368.36Z" fill="#CCCCCC"/>
                <path d="M548.313 348.564H466.703C465.466 348.564 464.28 348.073 463.405 347.199C462.531 346.326 462.039 345.141 462.039 343.906C462.039 342.67 462.531 341.485 463.405 340.612C464.28 339.738 465.466 339.248 466.703 339.248H548.313C549.55 339.248 550.736 339.738 551.61 340.612C552.485 341.485 552.976 342.67 552.976 343.906C552.976 345.141 552.485 346.326 551.61 347.199C550.736 348.073 549.55 348.564 548.313 348.564Z" fill="#CCCCCC"/>
                <path d="M434.508 424.255C442.556 424.255 449.081 417.738 449.081 409.699C449.081 401.66 442.556 395.143 434.508 395.143C426.459 395.143 419.935 401.66 419.935 409.699C419.935 417.738 426.459 424.255 434.508 424.255Z" fill="#CCCCCC"/>
                <path d="M578.625 424.255H466.703C465.466 424.255 464.28 423.764 463.405 422.891C462.531 422.017 462.039 420.833 462.039 419.597C462.039 418.362 462.531 417.177 463.405 416.303C464.28 415.43 465.466 414.939 466.703 414.939H578.625C579.862 414.939 581.048 415.43 581.923 416.303C582.797 417.177 583.289 418.362 583.289 419.597C583.289 420.833 582.797 422.017 581.923 422.891C581.048 423.764 579.862 424.255 578.625 424.255Z" fill="#CCCCCC"/>
                <path d="M548.313 404.459H466.703C465.466 404.459 464.28 403.968 463.405 403.095C462.531 402.221 462.039 401.036 462.039 399.801C462.039 398.566 462.531 397.381 463.405 396.507C464.28 395.634 465.466 395.143 466.703 395.143H548.313C549.55 395.143 550.736 395.634 551.61 396.507C552.485 397.381 552.976 398.566 552.976 399.801C552.976 401.036 552.485 402.221 551.61 403.095C550.736 403.968 549.55 404.459 548.313 404.459Z" fill="#CCCCCC"/>
                <path d="M617.615 450.456H385.609C382.982 450.454 380.463 449.41 378.605 447.554C376.747 445.698 375.702 443.183 375.699 440.558V267.631C375.702 265.007 376.747 262.491 378.605 260.635C380.463 258.78 382.982 257.736 385.609 257.733H617.615C620.242 257.736 622.761 258.78 624.619 260.635C626.477 262.491 627.522 265.007 627.525 267.631V440.558C627.522 443.183 626.477 445.698 624.619 447.554C622.761 449.41 620.242 450.454 617.615 450.456ZM385.609 258.897C383.291 258.9 381.068 259.821 379.429 261.458C377.79 263.096 376.868 265.316 376.865 267.631V440.558C376.868 442.874 377.79 445.094 379.429 446.731C381.068 448.368 383.291 449.289 385.609 449.292H617.615C619.933 449.289 622.156 448.368 623.795 446.731C625.434 445.094 626.356 442.874 626.359 440.558V267.631C626.356 265.316 625.434 263.096 623.795 261.458C622.156 259.821 619.933 258.9 617.615 258.897H385.609Z" fill="#3F3D56"/>
                <path d="M379.779 293.249C397.808 293.249 412.423 278.651 412.423 260.643C412.423 242.636 397.808 228.038 379.779 228.038C361.75 228.038 347.135 242.636 347.135 260.643C347.135 278.651 361.75 293.249 379.779 293.249Z" fill="#FFCC29"/>
                <path d="M376.542 273.082C375.807 273.083 375.092 272.846 374.505 272.406L374.468 272.379L366.797 266.512C366.441 266.24 366.143 265.901 365.919 265.514C365.695 265.127 365.55 264.7 365.491 264.257C365.432 263.813 365.461 263.363 365.577 262.931C365.692 262.499 365.892 262.094 366.164 261.739C366.436 261.384 366.776 261.087 367.163 260.863C367.551 260.639 367.979 260.494 368.422 260.435C368.866 260.376 369.317 260.405 369.749 260.521C370.182 260.636 370.587 260.836 370.943 261.108L375.912 264.913L387.654 249.617C387.927 249.262 388.266 248.965 388.654 248.741C389.041 248.517 389.469 248.372 389.913 248.313C390.357 248.255 390.808 248.284 391.24 248.4C391.672 248.515 392.078 248.715 392.433 248.987L392.36 249.086L392.435 248.988C393.151 249.538 393.62 250.35 393.738 251.245C393.857 252.139 393.615 253.045 393.066 253.761L379.253 271.753C378.934 272.168 378.523 272.504 378.053 272.734C377.583 272.964 377.066 273.083 376.542 273.082Z" fill="white"/>
                <path d="M379.529 455.602C378.955 455.603 378.388 455.481 377.865 455.245L316.363 427.687C315.358 427.238 314.451 426.595 313.695 425.795C312.939 424.996 312.348 424.055 311.956 423.027C311.564 421.999 311.378 420.904 311.41 419.805C311.442 418.705 311.69 417.623 312.141 416.619C312.591 415.615 313.236 414.71 314.037 413.956C314.838 413.201 315.78 412.611 316.81 412.22C317.839 411.829 318.935 411.645 320.036 411.677C321.137 411.71 322.22 411.959 323.225 412.41L384.727 439.967C385.216 440.186 385.657 440.499 386.024 440.888C386.392 441.278 386.68 441.735 386.87 442.236C387.061 442.736 387.151 443.269 387.135 443.804C387.12 444.339 386.999 444.865 386.78 445.354L383.258 453.195C382.935 453.912 382.411 454.521 381.749 454.948C381.088 455.375 380.317 455.602 379.529 455.602Z" fill="#FFCC29"/>
                <path d="M392.45 530.806H170.354C170.199 530.806 170.051 530.745 169.942 530.636C169.832 530.527 169.771 530.379 169.771 530.224C169.771 530.07 169.832 529.922 169.942 529.812C170.051 529.703 170.199 529.642 170.354 529.642H392.45C392.605 529.642 392.753 529.703 392.862 529.812C392.971 529.922 393.033 530.07 393.033 530.224C393.033 530.379 392.971 530.527 392.862 530.636C392.753 530.745 392.605 530.806 392.45 530.806Z" fill="#3F3D56"/>
                </g>
                <defs>
                <clipPath id="clip0_104_25">
                <rect width="521.889" height="463.736" fill="white" transform="translate(169.771 67.0703)"/>
                </clipPath>
                </defs>
            </svg>